<?xml version="1.0" encoding="utf-8"?>
<!-- Generator: Adobe Illustrator 16.0.0, SVG Export Plug-In . SVG Version: 6.00 Build 0)  -->
<!DOCTYPE svg PUBLIC "-//W3C//DTD SVG 1.1//EN" "http://www.w3.org/Graphics/SVG/1.1/DTD/svg11.dtd">
<svg version="1.1" id="Layer_2" xmlns="http://www.w3.org/2000/svg" xmlns:xlink="http://www.w3.org/1999/xlink" x="0px" y="0px"
	 width="303.442px" height="89.998px" viewBox="0 0 303.442 89.998" enable-background="new 0 0 303.442 89.998"
	 xml:space="preserve">
<g>
	<g id="Outter_Ring_2_">
		<circle fill="#CC0000" cx="258.632" cy="44.893" r="44.811"/>
	</g>
	<g id="extra_small_uses_2_" display="none">
		<path display="inline" fill="#FFFFFF" d="M258.633,1.748c23.828,0,43.144,19.316,43.144,43.145
			c0,23.826-19.315,43.143-43.144,43.143s-43.145-19.317-43.145-43.143C215.488,21.064,234.805,1.748,258.633,1.748 M258.633,1.153
			c-24.117,0-43.738,19.622-43.738,43.739c0,24.117,19.621,43.737,43.738,43.737s43.737-19.62,43.737-43.737
			C302.37,20.775,282.75,1.153,258.633,1.153L258.633,1.153z"/>
	</g>
	<g id="Thicker_White_border_2_">
		<path fill="#FFFFFF" d="M258.633,2.175c23.592,0,42.716,19.125,42.716,42.718c0,23.589-19.124,42.716-42.716,42.716
			c-23.593,0-42.718-19.127-42.718-42.716C215.915,21.3,235.04,2.175,258.633,2.175 M258.633,1.2
			c-24.093,0-43.693,19.601-43.693,43.693c0,24.091,19.601,43.692,43.693,43.692c24.091,0,43.691-19.601,43.691-43.692
			C302.324,20.8,282.724,1.2,258.633,1.2L258.633,1.2z"/>
	</g>
</g>
<circle id="CENTER_RING_FILL_2_" fill="#FFFFFF" cx="258.632" cy="44.892" r="30.515"/>
<g>
	<defs>
		<circle id="CENTER_RING_2_" cx="258.632" cy="44.892" r="30.98"/>
	</defs>
	<clipPath id="CENTER_RING_1_">
		<use xlink:href="#CENTER_RING_2_"  overflow="visible"/>
	</clipPath>
	<g id="Center_Organic_rev_2_" clip-path="url(#CENTER_RING_1_)">
		<path fill="#FFFFFF" stroke="#636466" stroke-width="0.6654" stroke-miterlimit="10" d="M258.454,65.24
			c0,0-2.674-4.944-3.138-10.104c-0.337-3.746,1.519-6.527,1.743-9.306c0.333-4.117-3.438-6.266-0.582-18.742l6.363-0.208
			c0,0-1.123,6.03-1.664,9.219c-0.757,4.465,1.373,7.625,1.705,10.702c0.422,3.898-3.862,4.117-4.665,7.921
			C257.585,57.715,257.952,62.226,258.454,65.24z"/>
		<path fill="none" stroke="#636466" stroke-width="0.4491" stroke-miterlimit="10" d="M258.724,26.797c0,0-0.086,3.715-0.541,7.943
			c-0.416,3.868,1.426,8.506,1.289,11.437c-0.123,2.647-1.758,3.692-2.354,7.053c-0.641,3.61,0.401,9.097,1.223,11.113"/>
	</g>
	<g id="_x34__pm_oragnic_rev_2_" clip-path="url(#CENTER_RING_1_)">
		<path fill="#FFFFFF" stroke="#636466" stroke-width="0.6654" stroke-miterlimit="10" d="M287.086,57.864
			c0,0-0.498-3.454-1.663-7.181c-0.416-1.331-1.029-3.581-2.079-5.157c-1.83-2.745-6.482-5.625-8.068-8.54
			c-1.681-3.087-2.213-7.485-7.567-13.606l-5.545,3.704c0,0,3.452,3.049,5.155,5.328c2.052,2.745,2.643,6.5,4.657,8.567
			c4.215,4.325,6.294,3.505,8.928,5.933C283.371,49.186,285.728,55.146,287.086,57.864z"/>
		<path fill="none" stroke="#636466" stroke-width="0.4491" stroke-miterlimit="10" d="M265.058,25.928c0,0,3.671,2.468,5.338,6.067
			c1.346,2.904,2.073,6.249,4.408,8.318c2.19,1.94,5.037,3.781,7.015,5.573c2.052,1.857,4.159,8.483,4.936,10.618"/>
	</g>
	<g id="_x37__pm_oragnic_rev_2_" clip-path="url(#CENTER_RING_1_)">
		<path fill="#FFFFFF" stroke="#636466" stroke-width="0.6654" stroke-miterlimit="10" d="M230.169,57.864
			c0,0,0.499-3.454,1.663-7.181c0.416-1.331,1.029-3.581,2.079-5.157c1.83-2.745,6.482-5.625,8.068-8.54
			c1.681-3.087,2.213-7.485,7.567-13.606l5.545,3.704c0,0-3.452,3.049-5.155,5.328c-2.052,2.745-2.643,6.5-4.657,8.567
			c-4.215,4.325-6.294,3.505-8.928,5.933C233.884,49.186,231.527,55.146,230.169,57.864z"/>
		<path fill="none" stroke="#636466" stroke-width="0.4491" stroke-miterlimit="10" d="M252.197,25.928c0,0-3.671,2.468-5.338,6.067
			c-1.345,2.904-2.073,6.249-4.408,8.318c-2.19,1.94-5.036,3.781-7.015,5.573c-2.052,1.857-4.159,8.483-4.936,10.618"/>
	</g>
	<g id="Upper_Left_organic_2_" clip-path="url(#CENTER_RING_1_)">
		<path fill="#FFFFFF" stroke="#636466" stroke-width="0.6654" stroke-miterlimit="10" d="M214.312,29.73
			c0,0,2.896-3.365,7.706-5.286c3.492-1.396,8.444-0.316,11.532-1.529c3.271-1.285,7.074-5.319,15.11-6.567l1.65,5.667
			c0,0-3.073,0.552-5.821,1.287c-3.384,0.904-4.881,2.151-7.858,2.701c-3.856,0.713-9.512,0.781-13.387,1.102
			C220.197,27.356,217.058,28.386,214.312,29.73z"/>
		<path fill="none" stroke="#636466" stroke-width="0.4491" stroke-miterlimit="10" d="M249.804,19.777c0,0-2.909,0.022-6.784,1.627
			c-4.214,1.747-7.412,3.173-10.259,3.882c-2.571,0.639-5.085-0.162-8.476,0.229c-3.643,0.42-8.586,2.972-10.282,4.337"/>
	</g>
	<g id="Upper_Right_organic_2_" clip-path="url(#CENTER_RING_1_)">
		<path fill="#FFFFFF" stroke="#636466" stroke-width="0.6654" stroke-miterlimit="10" d="M302.984,29.73
			c0,0-2.896-3.365-7.706-5.286c-3.492-1.396-8.444-0.316-11.532-1.529c-3.271-1.285-7.074-5.319-15.11-6.567l-1.65,5.667
			c0,0,3.073,0.552,5.821,1.287c3.384,0.904,4.881,2.151,7.858,2.701c3.856,0.713,9.512,0.781,13.387,1.102
			C297.1,27.356,300.239,28.386,302.984,29.73z"/>
		<path fill="none" stroke="#636466" stroke-width="0.4491" stroke-miterlimit="10" d="M267.493,19.777c0,0,2.909,0.022,6.784,1.627
			c4.214,1.747,7.412,3.173,10.259,3.882c2.571,0.639,5.085-0.162,8.476,0.229c3.642,0.42,8.587,2.972,10.282,4.337"/>
	</g>
	<g clip-path="url(#CENTER_RING_1_)">
		<polygon fill="#636466" points="289.782,40.77 268.203,21.113 264.569,26.017 		"/>
	</g>
	<g clip-path="url(#CENTER_RING_1_)">
		<polygon fill="#636466" points="270.742,55.378 264.247,23.934 257.844,25.947 		"/>
	</g>
	<g clip-path="url(#CENTER_RING_1_)">
		<polygon fill="#636466" points="246.538,55.385 253.033,23.94 259.438,25.954 		"/>
	</g>
	<g clip-path="url(#CENTER_RING_1_)">
		<polygon fill="#636466" points="227.532,40.791 249.111,21.134 252.745,26.038 		"/>
	</g>
	<g id="Upper_R_spike_2_" clip-path="url(#CENTER_RING_1_)">
		<polygon fill="#636466" points="296.934,16.486 296.934,16.486 296.934,16.486 268.347,15.516 268.686,21.188 		"/>
	</g>
	<g id="Upper_L_Spike_2_" clip-path="url(#CENTER_RING_1_)">
		<polygon fill="#636466" points="220.454,16.419 220.454,16.419 220.454,16.419 249.042,15.448 248.703,21.121 		"/>
	</g>
	<g clip-path="url(#CENTER_RING_1_)">
		<path fill="#636466" d="M258.64,71.49h-2.176c0,0-0.776-0.055-0.776-0.817c0-0.36,0.166-0.499,0.166-0.499l-12.759,1.168
			l-2.282-1.521v-22.77c0,0,35.655,0.014,35.655,0v22.77l-2.282,1.521l-12.759-1.168c0,0,0.166,0.139,0.166,0.499
			c0,0.763-0.776,0.817-0.776,0.817H258.64z"/>
		
			<path id="SM_bottom_page_2_" fill="#FFFFFF" stroke="#636466" stroke-width="0.693" stroke-linecap="round" stroke-linejoin="round" stroke-miterlimit="10" d="
			M258.64,69.507c0,0-2.203-1.33-5.446-1.33c-3.231,0-4.518,1.469-7.8,1.469c-2.991,0-3.472-0.582-3.472-0.582
			c0.044,0.039,0-23.205,0-23.205s0.179,0.216,0.998,0.385h31.441c0.818-0.169,0.997-0.385,0.997-0.385s-0.043,23.244,0,23.205
			c0,0-0.479,0.582-3.471,0.582c-3.283,0-4.569-1.469-7.801-1.469C260.844,68.177,258.64,69.507,258.64,69.507z"/>
		
			<path id="SM_top_page_2_" fill="#FFFFFF" stroke="#636466" stroke-width="0.693" stroke-linecap="round" stroke-linejoin="round" stroke-miterlimit="10" d="
			M258.64,67.096c0,0,2.163-1.275,5.157-1.275c3.085,0,4.166,1.413,6.71,1.413c2.634,0,2.855-0.582,2.855-0.582
			c-0.038,0.039,0-23.206,0-23.206s-0.423,0.583-3.057,0.583c-2.891,0-3.784-1.469-6.869-1.469c-2.855,0-4.797,1.331-4.797,1.331
			s-1.94-1.331-4.796-1.331c-3.084,0-3.979,1.469-6.869,1.469c-2.634,0-3.057-0.583-3.057-0.583s0.039,23.245,0,23.206
			c0,0,0.222,0.582,2.856,0.582c2.543,0,3.624-1.413,6.709-1.413C256.478,65.821,258.64,67.096,258.64,67.096z"/>
		
			<line id="SM_spine_2_" fill="#FFFFFF" stroke="#636466" stroke-width="0.6971" stroke-linecap="round" stroke-linejoin="round" stroke-miterlimit="10" x1="258.64" y1="67.096" x2="258.64" y2="69.507"/>
		<g>
			<path fill="#636466" d="M252.216,47.384c0.024,0.159,0.071,0.891,0.143,1.465l-0.356,0.04c-0.119-0.456-0.261-0.732-0.439-0.881
				c-0.202-0.168-0.582-0.228-1.318-0.228h-0.618c-0.451,0-0.476,0-0.476,0.356v2.198h1.188c1.021,0,1.045-0.06,1.164-0.792h0.38
				v2.03h-0.38c-0.119-0.743-0.143-0.782-1.164-0.782h-1.188v1.544c0,1.069,0.096,1.148,1.188,1.208v0.277h-3.492v-0.277
				c0.879-0.06,0.974-0.139,0.974-1.208v-3.465c0-1.069-0.095-1.148-0.974-1.208v-0.277H252.216z"/>
			<path fill="#636466" d="M256.515,47.384v0.277c-0.902,0.059-0.998,0.139-0.998,1.208v3.465c0,1.069,0.096,1.148,0.998,1.208
				v0.277h-3.35v-0.277c0.927-0.06,1.021-0.139,1.021-1.208v-3.465c0-1.069-0.095-1.148-1.021-1.208v-0.277H256.515z"/>
			<path fill="#636466" d="M261.111,47.266l0.819,1.841c0.535,1.208,1.058,2.436,1.51,3.425c0.403,0.881,0.569,0.951,1.259,1.01
				v0.277h-3.125v-0.277l0.333-0.04c0.451-0.059,0.476-0.159,0.333-0.534c-0.12-0.297-0.404-0.911-0.653-1.425h-2.198
				c-0.154,0.296-0.368,0.851-0.534,1.267c-0.215,0.524-0.119,0.653,0.403,0.703l0.333,0.03v0.277h-2.638v-0.277
				c0.737-0.08,0.868-0.119,1.283-1.01l2.4-5.147L261.111,47.266z M259.52,51.086h1.889l-0.926-2.178h-0.036L259.52,51.086z"/>
			<path fill="#636466" d="M264.08,48.948c0.047-0.653,0.118-1.307,0.143-1.821h0.214c0.166,0.237,0.285,0.257,0.617,0.257h4.895
				c0.309,0,0.38-0.059,0.57-0.257h0.19c0.023,0.416,0.07,1.168,0.143,1.801l-0.356,0.02c-0.119-0.515-0.262-0.772-0.44-0.92
				c-0.201-0.188-0.582-0.248-1.318-0.248h-0.618v4.554c0,1.069,0.096,1.148,1.188,1.208v0.277h-3.659v-0.277
				c1.046-0.06,1.141-0.139,1.141-1.208V47.78h-0.404c-1.021,0-1.33,0.119-1.52,0.297c-0.143,0.139-0.285,0.396-0.428,0.871H264.08z
				"/>
			<path fill="#636466" d="M251.028,56.13v0.277c-0.95,0.06-1.045,0.139-1.045,1.208v3.445c0,0.573,0.07,0.851,0.272,0.97
				s0.594,0.139,0.974,0.139c0.547,0,1.117-0.04,1.367-0.287c0.201-0.188,0.392-0.524,0.582-1l0.38,0.06
				c-0.071,0.316-0.333,1.326-0.428,1.624h-5.571v-0.277c0.998-0.061,1.093-0.139,1.093-1.209v-3.464
				c0-1.069-0.095-1.148-1.046-1.208V56.13H251.028z"/>
			<path fill="#636466" d="M256.703,56.13v0.277c-0.879,0.06-0.974,0.119-0.974,1.188v2.09c0,1.573,0.617,2.455,2.02,2.455
				c1.438,0,2.15-0.911,2.15-2.644v-0.595c0-1.128-0.06-1.682-0.107-1.979c-0.06-0.356-0.393-0.476-1.152-0.515V56.13h2.898v0.277
				c-0.594,0.02-0.902,0.158-0.963,0.515c-0.046,0.298-0.106,0.852-0.106,1.979v0.703c0,0.961-0.214,1.782-0.867,2.366
				c-0.522,0.476-1.366,0.742-2.197,0.742c-0.736,0-1.521-0.118-2.114-0.524c-0.63-0.426-0.891-1.139-0.891-2.307v-2.287
				c0-1.068-0.096-1.128-1.046-1.188V56.13H256.703z"/>
			<path fill="#636466" d="M265.505,56.13v0.277l-0.381,0.039c-0.38,0.04-0.476,0.119-0.285,0.357
				c0.096,0.118,0.713,0.989,1.295,1.712c0.381-0.465,0.879-1.118,1.212-1.634c0.19-0.297,0.19-0.396-0.237-0.436l-0.403-0.039
				V56.13h2.767v0.277c-0.783,0.079-0.902,0.079-1.473,0.684c-0.356,0.376-0.927,1-1.544,1.791l2.019,2.613
				c0.523,0.674,0.69,0.732,1.497,0.793v0.277h-3.444v-0.277l0.332-0.04c0.451-0.04,0.464-0.159,0.285-0.436
				c-0.143-0.218-0.499-0.692-1.496-2c-0.618,0.753-1.212,1.703-1.379,1.94c-0.166,0.238-0.237,0.475,0.215,0.495l0.451,0.04v0.277
				h-2.899v-0.277c0.666-0.061,0.951-0.119,1.283-0.456c0.238-0.237,1.33-1.524,2.021-2.415l-1.688-2.219
				c-0.487-0.643-0.617-0.712-1.426-0.791V56.13H265.505z"/>
		</g>
	</g>
	
		<ellipse id="new_sun_2_x25__wider_2_" clip-path="url(#CENTER_RING_1_)" fill="#FFFFFF" stroke="#636466" stroke-width="0.84" stroke-miterlimit="10" cx="258.686" cy="17.412" rx="11.599" ry="10.043"/>
</g>
<g id="Center_Ring_RED_2_">
	<defs>
		<circle id="CENTER_RING_non_Organic_2_" cx="258.632" cy="44.892" r="30.902"/>
	</defs>
	<clipPath id="CENTER_RING_non_Organic_1_">
		<use xlink:href="#CENTER_RING_non_Organic_2_"  overflow="visible"/>
	</clipPath>
	<use xlink:href="#CENTER_RING_non_Organic_2_"  overflow="visible" fill="none" stroke="#808285" stroke-width="0.79"/>
</g>
<g>
	<g id="Clark_1_">
		<path fill="#FFFFFF" d="M220.242,42.868c-1.229,0.448-1.542,1.25-1.506,2.332c0.064,1.961,1.549,2.83,3.076,2.779
			c1.963-0.064,3.24-1.267,3.185-2.96c-0.042-1.273-0.647-1.903-1.804-2.528l0.059-0.461c0.578,0.147,1.437,0.399,1.847,0.589
			c0.086,0.354,0.347,1.493,0.376,2.372c0.112,3.399-1.647,4.809-3.355,4.865c-2.09,0.069-3.769-1.852-3.867-4.857
			c-0.036-1.082,0.147-1.942,0.2-2.301c0.58-0.121,1.045-0.188,1.711-0.286L220.242,42.868z"/>
		<path fill="#FFFFFF" d="M224.155,37.951c0.759,0.159,0.998,0.158,1.146-0.084c0.117-0.197,0.198-0.531,0.279-0.917
			c0.102-0.486,0.16-1.073-0.04-1.414c-0.155-0.241-0.446-0.51-0.903-0.814l0.167-0.434c0.39,0.16,1.397,0.632,1.654,0.803
			l-1.248,5.947l-0.332-0.07c0.151-1.036,0.101-1.15-1.022-1.386l-3.574-0.75c-1.122-0.235-1.216-0.151-1.478,0.784l-0.332-0.07
			l0.785-3.74l0.332,0.069c-0.142,0.986-0.09,1.101,1.032,1.336L224.155,37.951z"/>
		<path fill="#FFFFFF" d="M228.507,29.684l0.105-0.317c0.156-0.448,0.078-0.556-0.427-0.559c-0.388-0.003-0.99-0.024-1.427-0.022
			l-0.978,2.032c0.211,0.271,0.561,0.623,0.9,0.97c0.396,0.402,0.512,0.431,0.813-0.075l0.167-0.273l0.306,0.147l-1.248,2.595
			l-0.306-0.147c0.264-0.721,0.288-0.894-0.38-1.709l-3.803-4.686l0.137-0.627l2.145,0.099c1.37,0.065,2.752,0.108,3.928,0.137
			c1.093,0.031,1.229-0.13,1.579-0.71l0.307,0.147l-1.514,3.146L228.507,29.684z M225.37,30.423l0.807-1.677l-2.368-0.122
			l-0.017,0.034L225.37,30.423z"/>
		<path fill="#FFFFFF" d="M231.009,23.181c0.881,0.735,1.003,0.704,1.655,0.021l0.261,0.217l-2.375,2.847l-0.261-0.218
			c0.571-0.784,0.58-0.911-0.3-1.645l-2.805-2.34c-0.88-0.735-1.002-0.704-1.639-0.041l-0.262-0.218l2.212-2.651
			c0.694-0.832,1.208-1.298,1.738-1.52c0.53-0.221,1.126-0.156,1.59,0.232c0.71,0.592,0.717,1.461,0.325,2.412
			c0.342,0.054,1.207,0.145,1.826,0.181c0.71,0.028,1.248,0.029,1.566-0.004c0.342-0.046,0.546-0.108,0.815-0.298l0.229,0.224
			l-0.311,0.338c-1.053,1.146-1.542,1.302-2.333,1.289c-0.628-0.01-1.329-0.13-1.981-0.243c-0.384-0.071-0.562,0.012-0.815,0.315
			l-0.188,0.225L231.009,23.181z M229.655,22.052l0.237-0.284c0.335-0.401,0.498-0.713,0.538-1.077
			c0.066-0.592-0.194-1.059-0.594-1.392c-0.807-0.673-1.663-0.244-2.121,0.304c-0.383,0.46-0.383,0.51-0.057,0.782L229.655,22.052z"
			/>
		<path fill="#FFFFFF" d="M237.254,17.239c0.649,0.946,0.796,0.932,1.63,0.411l0.198,0.276l-3,2.157l-0.198-0.275
			c0.697-0.58,0.736-0.7,0.067-1.631l-2.133-2.965c-0.67-0.931-0.796-0.932-1.619-0.418l-0.198-0.276L235,12.361l0.198,0.276
			c-0.707,0.587-0.746,0.707-0.077,1.638l1.023,1.422c0.2-0.746,0.663-2.831,0.748-3.585c0.06-0.528-0.006-0.597-0.304-0.422
			l-0.418,0.248l-0.199-0.276l2.638-1.897l0.198,0.276c-0.604,0.513-0.766,0.681-1.065,1.682c-0.292,0.969-0.546,1.858-0.729,2.695
			c1.327,0.274,2.682,0.543,3.997,0.734c0.854,0.118,1.11,0.104,1.564-0.158l0.199,0.276l-2.038,1.465
			c-0.678-0.179-2.976-0.646-4.486-0.958l-0.031,0.022L237.254,17.239z"/>
		<path fill="#FFFFFF" d="M246.327,6.591l0.101,0.324c-0.858,0.331-0.934,0.432-0.596,1.527l0.644,2.09
			c0.491,1.593,1.378,2.264,2.705,1.855c1.437-0.443,1.828-1.552,1.29-3.296l-0.206-0.67c-0.328-1.065-0.573-1.6-0.719-1.9
			c-0.171-0.336-0.516-0.374-1.328-0.157l-0.101-0.325l3.02-0.93l0.1,0.324c-0.603,0.208-0.851,0.44-0.803,0.813
			c0.049,0.33,0.147,0.91,0.476,1.976l0.229,0.74c0.3,0.974,0.396,1.933-0.102,2.742c-0.389,0.642-1.181,1.186-2.033,1.448
			c-0.804,0.247-1.672,0.371-2.396,0.138c-0.78-0.237-1.285-0.881-1.651-2.068l-0.706-2.293c-0.338-1.095-0.457-1.136-1.401-0.912
			l-0.1-0.325L246.327,6.591z"/>
		<path fill="#FFFFFF" d="M260.996,11.538l-0.777,0.025l-5.211-5.012l-0.026,0l0.072,2.196c0.036,1.114,0.132,1.695,0.193,2.022
			c0.076,0.369,0.399,0.497,1.24,0.501l0.011,0.339l-3.157,0.104l-0.012-0.339c0.637-0.042,0.937-0.201,0.988-0.574
			c0.041-0.33,0.098-0.916,0.062-2.03l-0.068-2.101c-0.022-0.679-0.031-0.934-0.269-1.181c-0.25-0.247-0.571-0.311-1.095-0.325
			l-0.011-0.339l2.216-0.073l5.071,4.613l0.025,0l-0.061-1.868c-0.037-1.114-0.132-1.695-0.193-2.022
			c-0.076-0.369-0.398-0.497-1.241-0.501l-0.011-0.339l3.158-0.104l0.011,0.339c-0.636,0.042-0.937,0.201-0.988,0.575
			c-0.04,0.33-0.097,0.916-0.062,2.03L260.996,11.538z"/>
		<path fill="#FFFFFF" d="M265.816,10.647c-0.206,1.128-0.118,1.22,0.798,1.451l-0.062,0.334l-3.684-0.671l0.061-0.334
			c0.938,0.106,1.052,0.051,1.257-1.077l0.654-3.592c0.205-1.128,0.119-1.219-0.797-1.451l0.061-0.334l3.685,0.671l-0.062,0.334
			c-0.938-0.106-1.053-0.051-1.258,1.076L265.816,10.647z"/>
		<path fill="#FFFFFF" d="M270.232,13.681c-0.147-2.104-0.337-4.986-0.407-6.082c-0.065-1.072-0.257-1.214-0.865-1.516l0.122-0.317
			l3.426,1.316l-0.122,0.317l-0.42-0.116c-0.459-0.119-0.529-0.044-0.519,0.426c0.013,0.642,0.19,2.951,0.3,4.551
			c0.739-0.717,2.507-2.62,2.877-3.013c0.532-0.568,0.479-0.715-0.037-0.97l-0.346-0.167l0.121-0.317l2.808,1.078l-0.122,0.317
			c-0.764-0.214-0.914-0.215-1.786,0.565c-0.125,0.111-2.73,2.489-4.399,4.168L270.232,13.681z"/>
		<path fill="#FFFFFF" d="M277.775,11.247c0.619-0.965,0.573-1.083-0.163-1.631l0.183-0.286l4.922,3.158
			c-0.087,0.159-0.452,0.846-0.777,1.47l-0.403-0.221c0.162-0.488,0.205-0.814,0.125-1.067c-0.074-0.262-0.394-0.542-1.025-0.949
			l-0.418-0.269c-0.408-0.261-0.43-0.274-0.63,0.038l-1.176,1.832l0.782,0.501c0.922,0.592,0.983,0.568,1.543-0.069l0.387,0.248
			l-1.256,1.957l-0.387-0.248c0.346-0.774,0.343-0.84-0.579-1.432l-0.782-0.502l-0.901,1.403c-0.419,0.652-0.496,0.867-0.328,1.101
			c0.136,0.188,0.426,0.374,0.865,0.656c0.493,0.316,1.021,0.58,1.395,0.517c0.285-0.044,0.652-0.238,1.099-0.556l0.346,0.31
			c-0.288,0.307-1.087,1.081-1.339,1.26l-5.296-3.399l0.184-0.286c0.914,0.511,1.039,0.504,1.659-0.461L277.775,11.247z"/>
		<path fill="#FFFFFF" d="M283.188,19.912c-0.825,0.795-0.809,0.92-0.2,1.644l-0.245,0.236l-2.572-2.67l0.245-0.236
			c0.718,0.653,0.842,0.675,1.667-0.12l2.631-2.533c0.826-0.796,0.809-0.921,0.218-1.626l0.245-0.236l2.396,2.487
			c0.751,0.78,1.159,1.342,1.321,1.893c0.163,0.552,0.033,1.136-0.402,1.556c-0.666,0.641-1.531,0.554-2.433,0.061
			c-0.091,0.334-0.274,1.185-0.377,1.796c-0.105,0.703-0.164,1.238-0.166,1.558c0.008,0.346,0.048,0.555,0.208,0.844l-0.247,0.202
			l-0.304-0.345c-1.024-1.171-1.126-1.674-1.027-2.459c0.078-0.624,0.273-1.308,0.457-1.944c0.112-0.374,0.05-0.561-0.225-0.845
			l-0.203-0.211L283.188,19.912z M284.457,18.689l0.256,0.266c0.362,0.376,0.654,0.573,1.013,0.653
			c0.581,0.13,1.073-0.079,1.447-0.439c0.757-0.729,0.423-1.627-0.072-2.142c-0.416-0.431-0.465-0.437-0.771-0.142L284.457,18.689z"
			/>
		<path fill="#FFFFFF" d="M287.683,24.465c-0.384,0.49-0.971,1.705-0.309,2.779c0.44,0.715,1.13,0.845,1.646,0.527
			c0.615-0.378,0.666-0.963,0.457-1.971l-0.053-0.267c-0.227-1.118-0.177-2.211,0.683-2.739c0.968-0.596,2.326-0.19,3.254,1.318
			c0.2,0.325,0.378,0.695,0.488,1.076c0.062,0.202,0.126,0.387,0.17,0.539c-0.3,0.244-0.659,0.57-1.135,1.013l-0.304-0.352
			c0.399-0.545,0.842-1.266,0.273-2.188c-0.407-0.662-1.045-0.808-1.552-0.496c-0.461,0.284-0.539,0.886-0.338,1.84l0.087,0.425
			c0.227,1.057,0.241,2.155-0.735,2.756c-1.065,0.657-2.5,0.148-3.462-1.414c-0.248-0.402-0.431-0.842-0.53-1.185
			c-0.105-0.354-0.16-0.605-0.192-0.779c0.181-0.231,0.725-0.746,1.193-1.199L287.683,24.465z"/>
		<path fill="#FFFFFF" d="M291.492,32.675c-1.065,0.426-1.096,0.549-0.805,1.447l-0.314,0.126l-1.394-3.477l0.315-0.126
			c0.409,0.852,0.517,0.919,1.581,0.492l3.39-1.359c1.064-0.426,1.096-0.548,0.805-1.447l0.314-0.126l1.394,3.477l-0.314,0.126
			c-0.411-0.852-0.518-0.918-1.582-0.492L291.492,32.675z"/>
		<path fill="#FFFFFF" d="M293.195,39.001c-1.125,0.22-1.179,0.334-1.021,1.472l-0.333,0.065l-0.786-4.026l0.333-0.065
			c0.272,1.063,0.365,1.149,1.49,0.93l4.711-0.92l-0.062-0.312c-0.198-1.013-0.389-1.326-0.603-1.479
			c-0.178-0.134-0.499-0.227-1.049-0.275l-0.088-0.45c0.75-0.094,1.483-0.16,2.02-0.238l0.046,0.237
			c-0.195,0.272-0.191,0.401-0.126,0.738l0.98,5.026c0.063,0.326,0.153,0.45,0.396,0.637l0.046,0.237
			c-0.435,0.098-1.235,0.319-1.932,0.52l-0.119-0.444c0.538-0.235,0.803-0.429,0.932-0.662c0.138-0.235,0.119-0.66-0.025-1.397
			l-0.1-0.512L293.195,39.001z"/>
		<path fill="#FFFFFF" d="M293.457,46.61c-1.146-0.028-1.223,0.071-1.314,1.191l-0.339-0.008l0.1-4.051l0.34,0.008
			c0.037,1.072,0.109,1.175,1.255,1.204l0.967,0.023c0.286,0.007,0.373-0.042,0.609-0.164c0.624-0.329,1.305-0.783,2.535-1.569
			c0.809-0.515,0.821-0.604,0.901-1.252l0.34,0.008l-0.087,3.503l-0.34-0.008l-0.051-0.524c-0.034-0.319-0.108-0.346-0.452-0.151
			c-0.819,0.477-1.65,0.966-2.438,1.457c0.605,0.41,1.621,1.008,2.312,1.395c0.398,0.227,0.484,0.165,0.539-0.293l0.054-0.482
			l0.34,0.008l-0.074,2.967l-0.339-0.008c-0.045-0.791-0.137-0.908-0.856-1.46c-0.615-0.475-1.146-0.921-2.065-1.491
			c-0.366-0.226-0.408-0.265-0.854-0.276L293.457,46.61z"/>
	</g>
	<g id="Roman_Numbers_1_">
		<path id="M_1_" display="none" fill="#FFFFFF" d="M231.66,66.988l-0.25,0.162c-0.529-0.695-0.585-0.713-1.427-0.127l-2.627,1.838
			c-0.85,0.592-0.861,0.625-0.44,1.392l-0.251,0.163l-1.74-2.682l0.25-0.163c0.505,0.659,0.547,0.672,1.408,0.099l2.904-1.924
			l-0.024-0.037l-5.354,0.581l-0.207-0.318l2.553-4.469l-0.012-0.019l-1.979,1.177c-0.69,0.408-1.107,0.706-1.326,0.901
			c-0.265,0.225-0.207,0.467,0.149,1.103l-0.25,0.161l-1.443-2.223l0.251-0.162c0.323,0.43,0.511,0.549,0.837,0.418
			c0.272-0.111,0.79-0.341,1.531-0.755l1.652-0.913c1.088-0.599,1.125-0.729,0.675-1.543l0.25-0.162l1.224,1.885l-2.275,4.195
			l4.687-0.481L231.66,66.988z"/>
		<path id="M_moved_2_" fill="#FFFFFF" d="M232.508,66.685l-0.245,0.158c-0.519-0.682-0.573-0.699-1.398-0.124l-2.575,1.802
			c-0.832,0.579-0.843,0.612-0.431,1.364l-0.246,0.159l-1.706-2.629l0.245-0.159c0.495,0.646,0.536,0.658,1.38,0.097l2.847-1.886
			l-0.023-0.036L225.107,66l-0.203-0.311l2.502-4.381l-0.012-0.019l-1.939,1.154c-0.677,0.4-1.086,0.691-1.3,0.883
			c-0.26,0.221-0.203,0.458,0.146,1.081l-0.245,0.158l-1.414-2.178l0.245-0.159c0.316,0.422,0.501,0.537,0.82,0.408
			c0.268-0.108,0.774-0.332,1.501-0.739l1.619-0.895c1.066-0.587,1.103-0.715,0.662-1.513l0.244-0.159l1.2,1.848l-2.23,4.111
			l4.593-0.472L232.508,66.685z"/>
		<path id="M_distorted_1_" display="none" fill="#FFFFFF" d="M231.66,66.988l-0.25,0.162c-0.529-0.695-0.585-0.713-1.427-0.127
			l-2.627,1.838c-0.85,0.592-0.861,0.625-0.44,1.392l-0.251,0.163l-1.74-2.682l0.25-0.163c0.505,0.659,0.547,0.672,1.408,0.099
			l2.904-1.924l-0.024-0.037l-5.153,0.381l-0.207-0.318l2.59-4.453l-0.249,0.166l-1.779,0.977c-0.69,0.408-1.108,0.705-1.325,0.9
			c-0.266,0.225-0.208,0.469,0.148,1.103l-0.25,0.162l-1.442-2.222l0.25-0.163c0.323,0.431,0.511,0.548,0.837,0.417
			c0.272-0.111,0.79-0.34,1.531-0.754l1.652-0.912c1.088-0.6,1.126-0.73,0.675-1.545l0.25-0.162l1.224,1.886l-2.476,4.396
			l4.687-0.481L231.66,66.988z"/>
		<path id="D_1_" display="none" fill="#FFFFFF" d="M234.688,69.947c0.905,0.914,1.541,1.888,1.645,2.84
			c0.072,0.668-0.111,1.463-0.7,2.047c-1.629,1.612-3.824,0.812-5.673-1.055l-1.99-2.01l0.212-0.209
			c0.653,0.58,0.762,0.597,1.478-0.111l2.277-2.254c0.715-0.708,0.698-0.818,0.188-1.413l0.212-0.21L234.688,69.947z
			 M230.721,72.443c-0.609,0.603-0.677,0.826-0.11,1.398c1.134,1.144,2.575,1.117,3.688,0.016c1.424-1.41,1.01-2.715-0.107-3.843
			c-0.229-0.229-0.422-0.386-0.495-0.406c-0.073-0.021-0.221,0.108-0.399,0.285L230.721,72.443z"/>
		<path id="D_rotated_2_" fill="#FFFFFF" d="M235.359,69.665c0.854,0.927,1.445,1.901,1.514,2.837
			c0.048,0.658-0.158,1.43-0.756,1.981c-1.65,1.522-3.773,0.665-5.521-1.228l-1.881-2.036l0.215-0.198
			c0.62,0.591,0.727,0.611,1.451-0.057l2.308-2.131c0.725-0.669,0.712-0.776,0.232-1.377l0.215-0.199L235.359,69.665z
			 M231.389,71.973c-0.617,0.57-0.691,0.786-0.155,1.366c1.07,1.159,2.483,1.182,3.61,0.142c1.442-1.332,1.082-2.624,0.026-3.767
			c-0.216-0.233-0.399-0.393-0.471-0.416s-0.22,0.099-0.401,0.266L231.389,71.973z"/>
		<path id="C_1_" display="none" fill="#FFFFFF" d="M242.577,77.653c0.252-1.12-0.189-1.731-1.006-2.219
			c-1.477-0.884-2.823-0.2-3.512,0.95c-0.884,1.48-0.604,2.993,0.673,3.756c0.959,0.574,1.712,0.428,2.722-0.131l0.312,0.263
			c-0.383,0.357-0.977,0.87-1.312,1.083c-0.302-0.104-1.266-0.453-1.928-0.849c-2.562-1.531-2.766-3.499-1.996-4.787
			c0.941-1.575,3.155-1.901,5.42-0.548c0.815,0.488,1.362,1.033,1.603,1.24c-0.187,0.486-0.358,0.861-0.602,1.399L242.577,77.653z"
			/>
		<path id="C_rotated_2_" fill="#FFFFFF" d="M242.889,76.906c0.209-1.105-0.245-1.69-1.061-2.139
			c-1.478-0.816-2.772-0.102-3.407,1.051c-0.815,1.479-0.489,2.951,0.787,3.655c0.959,0.53,1.69,0.36,2.661-0.222l0.315,0.247
			c-0.363,0.363-0.928,0.886-1.248,1.105c-0.3-0.092-1.256-0.4-1.918-0.765c-2.562-1.413-2.829-3.334-2.119-4.621
			c0.869-1.575,3.026-1.971,5.29-0.722c0.815,0.449,1.37,0.964,1.612,1.16c-0.165,0.481-0.321,0.856-0.541,1.391L242.889,76.906z"/>
		<path id="C_2_1_" display="none" fill="#FFFFFF" d="M249.393,80.207c0.024-1.146-0.53-1.658-1.427-1.974
			c-1.625-0.572-2.808,0.364-3.253,1.63c-0.573,1.625,0.003,3.053,1.406,3.547c1.055,0.371,1.763,0.077,2.642-0.67l0.358,0.195
			c-0.304,0.426-0.783,1.047-1.07,1.322c-0.316-0.043-1.331-0.191-2.059-0.449c-2.815-0.99-3.407-2.879-2.91-4.293
			c0.61-1.731,2.715-2.491,5.204-1.615c0.896,0.316,1.541,0.74,1.817,0.897c-0.085,0.513-0.179,0.914-0.311,1.49L249.393,80.207z"/>
		<path id="C_2_tweeked_2_" fill="#FFFFFF" d="M249.649,79.468c-0.016-1.124-0.576-1.605-1.465-1.884
			c-1.611-0.505-2.738,0.453-3.131,1.708c-0.506,1.611,0.108,2.989,1.499,3.425c1.046,0.328,1.729,0.017,2.565-0.745l0.356,0.179
			c-0.283,0.428-0.731,1.054-1.002,1.331c-0.312-0.031-1.312-0.143-2.032-0.368c-2.793-0.876-3.437-2.704-2.997-4.106
			c0.538-1.717,2.573-2.533,5.041-1.76c0.89,0.278,1.535,0.673,1.812,0.816c-0.066,0.505-0.145,0.901-0.254,1.471L249.649,79.468z"
			/>
		<path fill="#FFFFFF" d="M257.022,80.635c-0.214-1.104-0.851-1.479-1.775-1.597c-1.674-0.211-2.613,0.931-2.778,2.235
			c-0.211,1.676,0.636,2.925,2.082,3.107c1.087,0.138,1.704-0.29,2.392-1.188l0.384,0.113c-0.203,0.471-0.533,1.165-0.751,1.488
			c-0.312,0.023-1.314,0.091-2.065-0.004c-2.902-0.367-3.86-2.053-3.676-3.512c0.225-1.785,2.084-2.949,4.649-2.624
			c0.924,0.116,1.63,0.39,1.927,0.483c0.024,0.51,0.018,0.912,0.012,1.492L257.022,80.635z"/>
		<path fill="#FFFFFF" d="M260.712,83.372c0.039,0.665,0.095,0.863,0.329,0.933c0.189,0.053,0.485,0.044,0.825,0.024
			c0.426-0.025,0.926-0.109,1.164-0.352c0.164-0.185,0.323-0.486,0.473-0.935l0.396,0.041c-0.044,0.359-0.209,1.303-0.292,1.555
			l-5.218,0.307l-0.018-0.292c0.894-0.107,0.978-0.177,0.92-1.161l-0.185-3.136c-0.058-0.985-0.148-1.044-0.983-1.05l-0.017-0.291
			l3.281-0.193l0.017,0.292c-0.85,0.104-0.934,0.174-0.876,1.158L260.712,83.372z"/>
		<path fill="#FFFFFF" d="M268.649,83.305l0.291-0.1c0.394-0.145,0.388-0.256,0.129-0.483c-0.187-0.161-0.543-0.459-1.634-1.355
			c-0.321,0.71-0.62,1.602-0.727,1.9c-0.082,0.219-0.152,0.48,0.271,0.413l0.402-0.062l0.07,0.284l-2.67,0.66l-0.07-0.284
			c0.562-0.186,0.817-0.296,1.027-0.639c0.168-0.277,0.883-1.678,1.303-2.58l-2.056-1.646c-0.562-0.445-0.683-0.481-1.411-0.367
			l-0.07-0.283l3.128-0.773l0.07,0.283l-0.331,0.12c-0.332,0.12-0.353,0.172-0.175,0.344c0.103,0.097,0.838,0.743,1.446,1.195
			c0.217-0.449,0.487-1.089,0.688-1.647c0.108-0.291,0.112-0.366-0.29-0.305l-0.37,0.054l-0.07-0.283l2.543-0.63l0.07,0.284
			c-0.698,0.239-0.819,0.298-1.178,0.902c-0.27,0.462-0.671,1.164-1.018,1.908l2.451,1.925c0.604,0.48,0.76,0.471,1.465,0.354
			l0.07,0.283l-3.288,0.812L268.649,83.305z"/>
		<path fill="#FFFFFF" d="M276.139,80.537l0.265-0.158c0.356-0.221,0.329-0.328,0.029-0.498c-0.216-0.121-0.624-0.341-1.874-0.999
			c-0.172,0.761-0.283,1.694-0.328,2.009c-0.035,0.23-0.052,0.501,0.35,0.35l0.382-0.142l0.126,0.264l-2.481,1.185l-0.126-0.264
			c0.514-0.296,0.741-0.455,0.876-0.833c0.109-0.306,0.526-1.821,0.756-2.79l-2.345-1.197c-0.641-0.322-0.767-0.332-1.457-0.073
			l-0.126-0.265l2.907-1.389L273.218,76l-0.301,0.185c-0.3,0.185-0.311,0.239-0.102,0.372c0.121,0.074,0.972,0.559,1.658,0.879
			c0.122-0.483,0.258-1.166,0.342-1.752c0.048-0.307,0.035-0.382-0.346-0.24l-0.352,0.127l-0.126-0.264l2.362-1.128l0.126,0.264
			c-0.635,0.374-0.741,0.455-0.97,1.121c-0.171,0.506-0.423,1.274-0.612,2.073l2.79,1.391c0.688,0.349,0.84,0.307,1.506,0.049
			l0.125,0.265l-3.055,1.459L276.139,80.537z"/>
		<path fill="#FFFFFF" d="M282.915,76.315l0.229-0.207c0.304-0.287,0.255-0.388-0.073-0.494c-0.235-0.075-0.68-0.208-2.035-0.601
			c-0.017,0.777,0.062,1.715,0.082,2.032c0.01,0.231,0.049,0.501,0.411,0.271l0.347-0.215l0.176,0.233l-2.194,1.659l-0.176-0.233
			c0.444-0.394,0.635-0.595,0.691-0.992c0.046-0.321,0.151-1.89,0.181-2.885l-2.538-0.702c-0.69-0.187-0.816-0.173-1.44,0.22
			l-0.177-0.232l2.569-1.944l0.177,0.233l-0.258,0.24c-0.258,0.24-0.256,0.297-0.025,0.385c0.134,0.05,1.064,0.353,1.802,0.527
			c0.022-0.496,0.018-1.192-0.018-1.784c-0.015-0.31-0.041-0.382-0.386-0.166l-0.32,0.196l-0.176-0.233l2.089-1.579l0.177,0.232
			c-0.548,0.494-0.636,0.595-0.726,1.293c-0.066,0.53-0.16,1.334-0.185,2.154l3.012,0.801c0.745,0.203,0.885,0.133,1.485-0.253
			l0.176,0.233l-2.7,2.043L282.915,76.315z"/>
		<path fill="#FFFFFF" d="M288.457,71.65c-1.74-0.512-4.12-1.223-5.024-1.494c-0.884-0.269-1.055-0.157-1.48,0.242l-0.22-0.193
			l2.088-2.367l0.22,0.193l-0.22,0.304c-0.233,0.335-0.194,0.414,0.188,0.547c0.521,0.182,2.436,0.731,3.758,1.122
			c-0.356-0.811-1.359-2.807-1.565-3.222c-0.298-0.601-0.433-0.601-0.793-0.261l-0.237,0.229l-0.22-0.193l1.712-1.939l0.219,0.193
			c-0.402,0.552-0.447,0.672-0.081,1.609c0.053,0.134,1.188,2.947,2.04,4.795L288.457,71.65z"/>
		<path fill="#FFFFFF" d="M291.636,64.951c0.832,0.527,0.933,0.488,1.414-0.167l0.246,0.157l-1.727,2.72l-0.247-0.157
			c0.39-0.713,0.382-0.822-0.45-1.352l-2.652-1.683c-0.832-0.528-0.933-0.489-1.414,0.167l-0.246-0.158l1.727-2.719l0.247,0.156
			c-0.389,0.714-0.382,0.822,0.451,1.351L291.636,64.951z"/>
		<path fill="#FFFFFF" d="M293.634,61.226c0.885,0.436,0.98,0.385,1.387-0.32l0.263,0.131l-1.418,2.891l-0.263-0.128
			c0.308-0.752,0.289-0.859-0.597-1.294l-2.82-1.385c-0.886-0.434-0.981-0.383-1.388,0.32l-0.263-0.129l1.419-2.893l0.263,0.13
			c-0.308,0.751-0.289,0.858,0.596,1.293L293.634,61.226z"/>
	</g>
	<g id="Diamonds_1_">
		<path fill="#FFFFFF" d="M224.018,57.698c-0.259-0.308-0.48-0.547-0.664-0.72c-0.185-0.172-0.353-0.299-0.505-0.379
			c-0.152-0.078-0.352-0.143-0.598-0.193s-0.575-0.093-0.986-0.127l-0.038-0.121c0.314-0.267,0.558-0.493,0.729-0.677
			c0.171-0.184,0.297-0.351,0.376-0.501c0.077-0.154,0.142-0.354,0.191-0.602c0.05-0.247,0.092-0.572,0.125-0.974l0.12-0.039
			c0.26,0.311,0.482,0.553,0.666,0.726c0.185,0.172,0.353,0.297,0.505,0.375c0.151,0.077,0.35,0.141,0.597,0.191
			c0.246,0.05,0.574,0.093,0.986,0.13l0.038,0.12c-0.315,0.266-0.559,0.491-0.729,0.675c-0.172,0.184-0.297,0.351-0.375,0.503
			c-0.079,0.149-0.144,0.349-0.194,0.596c-0.05,0.247-0.091,0.573-0.124,0.978L224.018,57.698z"/>
		<path fill="#FFFFFF" d="M295.146,52.665c0.043,0.399,0.094,0.722,0.15,0.967c0.057,0.247,0.125,0.446,0.207,0.597
			c0.083,0.15,0.212,0.315,0.389,0.494c0.175,0.18,0.424,0.398,0.746,0.656l-0.035,0.121c-0.411,0.047-0.738,0.099-0.983,0.156
			c-0.245,0.057-0.442,0.125-0.592,0.205c-0.15,0.084-0.315,0.215-0.495,0.393c-0.18,0.176-0.396,0.423-0.647,0.738l-0.12-0.036
			c-0.044-0.403-0.093-0.728-0.148-0.973c-0.058-0.246-0.126-0.443-0.209-0.594c-0.082-0.148-0.212-0.312-0.389-0.491
			c-0.176-0.179-0.424-0.399-0.746-0.659l0.035-0.121c0.41-0.045,0.738-0.096,0.982-0.153c0.245-0.057,0.442-0.126,0.593-0.209
			c0.149-0.08,0.313-0.208,0.493-0.386c0.18-0.177,0.396-0.424,0.648-0.741L295.146,52.665z"/>
	</g>
</g>
<g>
	<path fill="#231F20" d="M37.302,24.392c-2.027-7.771-6.352-9.866-12.976-9.866c-12.165,0-17.57,9.191-17.57,19.8
		c0,13.043,6.69,21.694,17.638,21.694c7.569,0,11.083-3.65,14.395-10.745l1.689,0.202c-0.879,2.906-2.365,8.313-3.446,10.88
		c-1.893,0.473-7.975,1.893-12.705,1.893c-17.098,0-24.261-11.623-24.261-22.368c0-13.922,10.746-23.585,25.545-23.585
		c5.745,0,10.272,1.351,12.165,1.757c0.541,3.717,0.812,6.69,1.216,10.205L37.302,24.392z"/>
	<path fill="#231F20" d="M58.556,48.685c0,3.564,0.297,5.226,1.425,5.819c1.128,0.653,3.326,0.773,5.583,0.773
		c2.969,0,5.761-0.298,7.067-1.723c0.95-1.07,1.959-3.088,2.85-5.819l1.484,0.178c-0.296,1.663-1.603,7.72-2.078,9.323H48.104V55.87
		c4.988-0.356,5.464-0.771,5.464-7.246V27.247c0-6.473-0.476-6.888-5.464-7.245v-1.365h16.035v1.365
		c-5.107,0.357-5.583,0.772-5.583,7.245V48.685z"/>
	<path fill="#231F20" d="M106.186,55.87l1.9-0.238c2.198-0.237,2.435-0.891,1.841-2.731c-0.415-1.425-2.137-6.057-3.8-10.333H94.071
		c-0.595,1.544-2.138,6.177-2.97,8.671c-1.128,3.443-0.594,4.216,2.078,4.453l1.782,0.178v1.366H82.253V55.87
		c3.86-0.415,4.335-0.771,6.414-6.057L100.9,18.28l1.366-0.535l4.216,11.282c2.791,7.543,5.403,15.084,7.721,21.142
		c1.9,4.988,2.672,5.404,6.354,5.701v1.366h-14.371V55.87z M94.843,40.311h10.512l-5.226-14.608h-0.119L94.843,40.311z"/>
	<path fill="#231F20" d="M137.778,48.625c0,6.474,0.476,6.89,5.345,7.246v1.366h-15.796V55.87c4.988-0.356,5.463-0.771,5.463-7.246
		V27.247c0-6.473-0.476-6.888-5.226-7.245v-1.365h15.084c3.8,0,7.186,0.534,9.383,2.019c2.375,1.485,3.92,4.158,3.92,7.601
		c0,4.929-3.029,8.434-7.839,10.393c1.068,1.781,3.503,5.88,5.284,8.492c2.138,3.147,3.385,4.75,4.989,6.532
		c1.246,1.484,2.315,2.434,4.453,2.969l-0.118,1.128h-0.831c-6.83-0.178-8.908-2.256-11.164-5.521
		c-1.842-2.673-4.336-7.067-5.999-9.859c-0.95-1.543-1.9-2.137-3.741-2.137h-3.207V48.625z M137.778,38.531h3.445
		c2.435,0,4.335-0.298,5.938-1.604c2.553-2.019,3.445-4.928,3.445-7.839c0-6.235-4.513-8.729-8.967-8.729
		c-2.019,0-2.851,0.118-3.325,0.296c-0.356,0.119-0.535,0.416-0.535,1.604V38.531z"/>
	<path fill="#231F20" d="M179.468,37.283c2.91-2.375,11.164-11.105,14.192-14.846c1.01-1.247,0.832-1.96-0.772-2.138l-2.434-0.297
		v-1.365h14.312v1.365c-3.683,0.357-5.167,0.653-9.086,4.276c-2.138,1.9-6.711,6.235-11.402,11.105
		c5.286,6.235,11.759,13.361,14.372,16.093c3.266,3.385,4.335,4.098,7.065,4.394v1.366h-8.788
		c-2.851-3.147-13.362-15.559-17.459-19.834v11.223c0,6.474,0.475,6.89,5.582,7.246v1.366h-15.737V55.87
		c4.69-0.356,5.167-0.771,5.167-7.246V27.247c0-6.473-0.477-6.888-5.464-7.245v-1.365h15.737v1.365
		c-4.811,0.357-5.285,0.772-5.285,7.245V37.283z"/>
</g>
<g>
	<path fill="#231F20" d="M11.022,63.103v0.753c-1.989,0.161-2.204,0.322-2.204,3.226v5.672c0,4.273,1.398,6.666,4.57,6.666
		c3.252,0,4.865-2.473,4.865-7.177v-1.614c0-3.063-0.134-4.568-0.242-5.375c-0.134-0.967-0.887-1.29-2.607-1.397v-0.753h6.559v0.753
		c-1.344,0.054-2.043,0.431-2.178,1.397c-0.107,0.807-0.242,2.312-0.242,5.375v1.91c0,2.606-0.484,4.838-1.962,6.425
		c-1.183,1.289-3.092,2.016-4.973,2.016c-1.666,0-3.441-0.323-4.785-1.426c-1.425-1.155-2.016-3.091-2.016-6.263v-6.209
		c0-2.903-0.215-3.064-2.366-3.226v-0.753H11.022z"/>
	<path fill="#231F20" d="M32.47,63.103l10.725,12.634h0.054v-5.108c0-3.063-0.134-4.568-0.242-5.375
		c-0.135-0.967-0.888-1.29-2.608-1.397v-0.753h6.559v0.753c-1.345,0.054-2.042,0.431-2.177,1.397
		c-0.108,0.807-0.242,2.312-0.242,5.375v10.162h-1.236L32.228,67.242h-0.054v5.808c0,3.063,0.134,4.569,0.242,5.375
		c0.134,0.968,0.886,1.29,2.607,1.397v0.754h-6.56v-0.754c1.344-0.053,2.043-0.43,2.178-1.397c0.107-0.806,0.242-2.312,0.242-5.375
		v-5.27c0-3.118-0.591-3.763-2.795-3.924v-0.753H32.47z"/>
	<path fill="#231F20" d="M61.363,63.103v0.753c-2.043,0.161-2.258,0.376-2.258,3.278v9.408c0,2.903,0.215,3.119,2.258,3.279v0.754
		h-7.58v-0.754c2.097-0.16,2.312-0.376,2.312-3.279v-9.408c0-2.902-0.215-3.117-2.312-3.278v-0.753H61.363z"/>
	<path fill="#231F20" d="M74.962,63.103v0.753l-0.86,0.134c-1.022,0.135-1.076,0.323-0.753,1.371
		c0.538,1.666,2.634,6.988,4.274,11.182c1.076-2.876,3.333-8.978,3.817-10.43c0.564-1.719,0.323-2.042-0.86-2.177l-0.806-0.08
		v-0.753h6.101v0.753c-1.721,0.215-1.828,0.403-3.064,2.903c-0.269,0.537-3.602,8.493-5.672,13.978h-1.156
		c-1.827-4.839-4.381-11.451-5.403-14.14c-0.913-2.419-1.343-2.58-2.849-2.741v-0.753H74.962z"/>
	<path fill="#231F20" d="M104.394,63.103c0.054,0.43,0.162,2.42,0.323,4.086l-0.806,0.053c-0.27-1.29-0.592-2.043-0.995-2.445
		c-0.457-0.457-1.316-0.618-2.983-0.618h-1.345c-1.021,0-1.075,0-1.075,0.968v5.699h2.312c2.311,0,2.365-0.162,2.634-2.231h0.859
		v5.698h-0.859c-0.269-2.123-0.324-2.23-2.634-2.23h-2.312v4.408c0,1.559,0.108,2.311,0.592,2.66c0.483,0.323,1.452,0.35,2.581,0.35
		c1.344,0,2.58-0.107,3.145-0.779c0.457-0.51,0.914-1.424,1.371-2.715l0.807,0.162c-0.108,0.913-0.699,3.654-0.914,4.408H91.975
		v-0.754c2.312-0.16,2.526-0.376,2.526-3.279v-9.408c0-2.902-0.214-3.117-2.257-3.278v-0.753H104.394z"/>
	<path fill="#231F20" d="M119.901,63.103c1.962,0,3.36,0.215,4.435,0.914c1.048,0.698,1.773,1.827,1.773,3.415
		c0,2.257-1.397,3.844-3.574,4.649c0.43,0.752,1.478,2.633,2.338,3.844c1.021,1.479,1.72,2.445,2.23,2.983
		c0.645,0.645,1.075,1.048,1.855,1.236l-0.108,0.699l-1.129-0.054c-2.929-0.215-3.844-0.969-4.892-2.473
		c-0.86-1.237-1.747-2.958-2.526-4.354c-0.431-0.753-0.753-1.022-1.56-1.022h-0.859v3.602c0,2.903,0.214,3.119,2.257,3.279v0.754
		h-7.58v-0.754c2.151-0.16,2.365-0.376,2.365-3.279v-9.408c0-2.902-0.214-3.117-2.258-3.278v-0.753H119.901z M117.886,72.027h1.021
		c1.075,0,1.828-0.161,2.526-0.699c1.075-0.859,1.452-2.149,1.452-3.44c0-2.795-1.936-3.763-3.655-3.763
		c-1.29,0-1.344,0.107-1.344,0.968V72.027z"/>
	<path fill="#231F20" d="M144.763,67.215c-0.484-1.559-1.317-3.44-3.575-3.44c-1.774,0-2.742,1.29-2.742,2.822
		c0,1.506,1.075,2.5,3.145,3.441l0.698,0.322c2.098,0.941,4.033,2.365,4.033,5.161c0,3.198-2.5,5.457-6.129,5.457
		c-1.021,0-1.989-0.216-2.688-0.458c-0.753-0.242-1.236-0.457-1.559-0.564c-0.215-0.699-0.538-2.525-0.806-4.166l0.806-0.269
		c0.538,1.397,1.989,4.382,4.758,4.382c1.748,0,2.822-1.371,2.822-3.038c0-1.506-0.725-2.58-2.849-3.629l-0.861-0.431
		c-1.773-0.913-4.032-2.338-4.032-4.973c0-2.822,2.124-5.134,5.726-5.134c0.725,0,1.693,0.108,2.446,0.378
		c0.431,0.16,0.807,0.213,1.129,0.349c0.107,0.939,0.268,2.122,0.538,3.629L144.763,67.215z"/>
	<path fill="#231F20" d="M161.158,63.103v0.753c-2.043,0.161-2.259,0.376-2.259,3.278v9.408c0,2.903,0.216,3.119,2.259,3.279v0.754
		h-7.581v-0.754c2.098-0.16,2.312-0.376,2.312-3.279v-9.408c0-2.902-0.215-3.117-2.312-3.278v-0.753H161.158z"/>
	<path fill="#231F20" d="M168.145,67.349c0.107-1.773,0.27-3.547,0.322-4.945h0.484c0.376,0.646,0.645,0.699,1.397,0.699h11.074
		c0.699,0,0.86-0.161,1.291-0.699h0.43c0.054,1.129,0.161,3.172,0.323,4.893l-0.808,0.053c-0.268-1.397-0.591-2.096-0.994-2.498
		c-0.457-0.512-1.317-0.673-2.983-0.673h-1.398v12.364c0,2.903,0.216,3.119,2.688,3.279v0.754h-8.279v-0.754
		c2.365-0.16,2.581-0.376,2.581-3.279V64.178h-0.915c-2.311,0-3.01,0.323-3.439,0.807c-0.323,0.376-0.646,1.075-0.968,2.364H168.145
		z"/>
	<path fill="#231F20" d="M196.34,63.103v0.753l-1.129,0.161c-0.699,0.107-0.753,0.322-0.323,1.182
		c0.646,1.292,2.366,4.543,3.468,6.317c0.833-1.425,2.312-4.327,3.118-6.155c0.458-1.021,0.296-1.29-0.646-1.397l-1.074-0.107
		v-0.753h6.048v0.753c-1.613,0.161-1.854,0.483-2.984,2.257c-1.021,1.613-2.016,3.279-3.387,5.941
		c-0.269,0.484-0.35,0.699-0.35,1.612v2.876c0,2.903,0.215,3.119,2.634,3.279v0.754h-8.17v-0.754
		c2.311-0.16,2.525-0.376,2.525-3.279v-2.605c0-0.565,0.027-0.7-0.375-1.453c-0.86-1.613-1.829-3.306-3.603-6.371
		c-1.156-2.015-1.29-2.096-2.688-2.257v-0.753H196.34z"/>
</g>
</svg>
