<?xml version="1.0" encoding="iso-8859-1"?>
<!-- Generator: Adobe Illustrator 19.0.0, SVG Export Plug-In . SVG Version: 6.00 Build 0)  -->
<svg version="1.1" id="Capa_1" xmlns="http://www.w3.org/2000/svg" xmlns:xlink="http://www.w3.org/1999/xlink" x="0px" y="0px"
	 viewBox="0 0 512 512" style="enable-background:new 0 0 512 512;" xml:space="preserve">
<polygon style="fill:#00E8F2;" points="194.831,338.371 169.211,363.992 148.008,342.789 173.629,317.158 183.765,327.305 "/>
<polygon style="fill:#00CACA;" points="183.765,327.305 194.831,338.371 169.211,363.992 158.294,353.076 "/>
<polygon style="fill:#00E8F2;" points="408.906,119.018 350.927,181.016 339.171,170.02 329.014,160.534 386.994,98.535 
	398.85,109.621 398.86,109.631 "/>
<polygon style="fill:#00CACA;" points="350.927,181.016 339.171,170.02 398.85,109.621 398.86,109.631 408.906,119.018 "/>
<polygon style="fill:#00E8F2;" points="131.494,401.709 105.393,427.81 84.19,406.607 110.291,380.506 120.808,391.023 "/>
<polygon style="fill:#C8C6CD;" points="101.474,0 60.679,40.806 39.466,62.018 0,101.474 64.277,165.752 146.968,248.443 
	186.434,208.987 207.647,187.774 248.443,146.968 "/>
<polygon style="fill:#ACABB1;" points="512,410.526 471.204,451.331 449.992,472.534 449.992,472.544 410.526,512 347.648,449.122 
	326.445,427.92 263.557,365.032 303.023,325.566 324.236,304.363 365.032,263.557 449.122,347.648 "/>
<polygon style="fill:#8B8992;" points="186.434,166.561 146.159,126.286 165.752,106.692 176.358,96.086 186.964,85.49 
	165.752,64.277 155.155,74.884 144.549,85.49 124.956,105.083 81.881,62.008 71.275,51.402 60.679,40.806 39.466,62.018 
	50.062,72.614 60.669,83.221 103.744,126.296 85.49,144.549 74.884,155.155 64.277,165.752 85.49,186.964 96.086,176.358 
	124.946,147.498 165.222,187.774 175.828,198.38 212.615,235.167 233.828,213.955 197.041,177.168 "/>
<polygon style="fill:#78777F;" points="471.204,451.331 449.992,472.534 449.992,472.544 387.104,409.656 358.244,438.516 
	347.648,449.122 326.445,427.92 337.042,417.313 347.648,406.707 365.901,388.453 303.023,325.566 276.833,299.375 298.045,278.172 
	324.236,304.363 387.114,367.241 406.707,347.648 417.313,337.042 427.92,326.445 449.122,347.648 438.516,358.244 427.91,368.85 
	408.316,388.443 "/>
<path style="fill:#FFAA1E;" d="M104.353,486.019c-0.5,0.01-1,0.02-1.489,0.02c-20.203,0-39.346-8.387-53.011-23.202
	c-0.46-0.5-0.91-1-1.36-1.509c-14.205-16.254-20.343-37.817-16.854-59.139l29.6,4.848c-2.029,12.406,1.519,24.951,9.727,34.428
	c0.04,0.05,0.08,0.09,0.12,0.14c8.227,9.427,20.103,14.705,32.659,14.435L104.353,486.019z"/>
<polygon style="fill:#00A6FF;" points="392.932,204.488 354.135,243.294 308.651,288.778 287.439,309.981 220.542,376.878 
	188.434,344.769 177.408,333.733 135.122,291.448 268.706,157.865 307.512,119.068 338.661,150.217 "/>
<polygon style="fill:#D1FEFB;" points="354.135,243.294 332.933,264.497 322.327,253.891 247.503,179.067 268.706,157.865 
	279.312,168.471 289.918,179.077 310.191,199.35 332.923,222.082 343.529,232.688 "/>
<polygon style="fill:#006EF5;" points="392.932,204.488 354.135,243.294 308.651,288.778 287.439,309.981 220.542,376.878 
	188.434,344.769 177.408,333.733 348.757,160.314 "/>
<path style="fill:#FF8900;" d="M103.744,456.04l0.61,29.979c-0.5,0.01-1,0.02-1.489,0.02c-20.203,0-39.346-8.387-53.011-23.202
	l21.113-21.372c0.04,0.05,0.08,0.09,0.12,0.14C79.312,451.031,91.188,456.31,103.744,456.04z"/>
<polygon style="fill:#00CACA;" points="120.808,391.023 131.494,401.709 105.393,427.81 94.867,417.283 "/>
<polygon style="fill:#77FEF6;" points="343.529,232.688 354.135,243.294 332.933,264.497 322.327,253.891 289.118,220.682 
	310.191,199.35 332.923,222.082 "/>
<path style="fill:#8B8992;" d="M189.104,390.813c0,18.144-7.068,35.198-19.893,48.023c-0.15,0.15-0.33,0.32-0.51,0.48
	l-10.506,10.306l-95.846-95.846l10.356-10.506c0.17-0.18,0.32-0.34,0.49-0.51c12.796-12.796,29.85-19.863,47.993-19.863
	c13.035,0,25.511,3.649,36.257,10.456c4.059,2.579,7.887,5.608,11.386,9.067c0.13,0.12,0.25,0.24,0.38,0.37
	c3.609,3.609,6.768,7.557,9.437,11.766C185.455,365.302,189.104,377.777,189.104,390.813z"/>
<path style="fill:#78777F;" d="M178.647,354.555c6.808,10.746,10.456,23.222,10.456,36.257c0,18.144-7.068,35.198-19.893,48.023
	c-0.15,0.15-0.33,0.32-0.51,0.48l-10.506,10.306l-47.933-47.933l58.569-59.269c0.13,0.12,0.25,0.24,0.38,0.37
	C172.819,346.398,175.978,350.347,178.647,354.555z"/>
<g>
</g>
<g>
</g>
<g>
</g>
<g>
</g>
<g>
</g>
<g>
</g>
<g>
</g>
<g>
</g>
<g>
</g>
<g>
</g>
<g>
</g>
<g>
</g>
<g>
</g>
<g>
</g>
<g>
</g>
</svg>
