<?xml version="1.0" encoding="iso-8859-1"?>
<!-- Generator: Adobe Illustrator 19.0.0, SVG Export Plug-In . SVG Version: 6.00 Build 0)  -->
<svg version="1.1" id="Capa_1" xmlns="http://www.w3.org/2000/svg" xmlns:xlink="http://www.w3.org/1999/xlink" x="0px" y="0px"
	 viewBox="0 0 512 512" style="enable-background:new 0 0 512 512;" xml:space="preserve">
<path style="fill:#C8C6CD;" d="M512,250.387l-26.209,117.05l-59.015-13.214c-9.336,15.823-20.741,30.167-34.065,42.832
	l26.878,54.936l-107.744,52.717l-26.948-55.076c-9.556,1.389-19.202,2.099-28.888,2.089c-8.386-0.01-16.813-0.55-25.239-1.639
	l-26.309,55.816L95.969,454.76l26.049-55.276c-13.504-12.385-25.129-26.459-34.715-42.012l-59.384,14.204L0,255.025l58.275-13.944
	c1.15-18.692,4.888-36.924,11.185-54.457l-47.15-36.644l73.598-94.709l46.35,36.015c16.403-11.565,34.235-20.451,53.217-26.529
	V6.102h119.948v58.275c18.172,5.678,35.285,13.914,51.118,24.579l45.86-36.724l74.978,93.62l-46.14,36.954
	c6.697,17.492,10.825,35.745,12.335,54.507L512,250.387z"/>
<path style="fill:#ACABB1;" d="M512,250.387l-26.209,117.05l-59.015-13.214c-9.336,15.823-20.741,30.167-34.065,42.832
	l26.878,54.936l-107.744,52.717l-26.948-55.076c-9.556,1.389-19.202,2.099-28.888,2.089V6.102h59.414v58.275
	c18.172,5.678,35.285,13.914,51.118,24.579l45.86-36.724l74.978,93.62l-46.14,36.954c6.697,17.492,10.825,35.745,12.335,54.507
	L512,250.387z"/>
<path style="fill:#00E8F2;" d="M382.945,253.516c0,70.11-56.826,126.935-126.935,126.945H256
	c-70.11,0-126.945-56.836-126.945-126.945S185.89,126.571,256,126.571h0.01C326.12,126.581,382.945,183.406,382.945,253.516z"/>
<path style="fill:#00CACA;" d="M382.945,253.516c0,70.11-56.826,126.935-126.935,126.945V126.571
	C326.12,126.581,382.945,183.406,382.945,253.516z"/>
<path style="fill:#D1FEFB;" d="M256.01,111.577H256c-78.266,0-141.939,63.673-141.939,141.939S177.734,395.455,256,395.455h0.01
	c78.266-0.01,141.929-63.673,141.929-141.939S334.276,111.587,256.01,111.577z M360.685,213.863
	c-3.199-1.299-6.657-2.559-10.406-3.778c-12.265-3.968-26.429-7.067-41.772-9.216c-2.159-15.343-5.258-29.507-9.226-41.772
	c-1.199-3.708-2.439-7.137-3.728-10.306C325.48,160.126,349.32,183.946,360.685,213.863z M240.047,172.201
	c6.587-22.31,13.814-29.457,15.953-30.547l0.01,0.01c2.149,1.1,9.366,8.256,15.943,30.537c2.299,7.797,4.228,16.463,5.768,25.729
	c-7.117-0.38-14.364-0.59-21.711-0.59H256c-7.347,0-14.604,0.21-21.721,0.59C235.819,188.664,237.748,179.998,240.047,172.201z
	 M216.447,148.791c-1.289,3.169-2.529,6.597-3.728,10.306c-3.968,12.265-7.067,26.429-9.226,41.772
	c-15.343,2.149-29.507,5.248-41.772,9.216c-3.748,1.219-7.207,2.479-10.406,3.778C162.68,183.946,186.52,160.126,216.447,148.791z
	 M144.278,253.376c1.1-2.139,8.246-9.366,30.547-15.953c7.807-2.299,16.463-4.228,25.729-5.778c-0.38,7.127-0.59,14.384-0.59,21.731
	c0,7.337,0.21,14.594,0.59,21.721c-9.266-1.539-17.922-3.469-25.729-5.777C152.524,262.742,145.378,255.505,144.278,253.376z
	 M151.185,292.829c3.239,1.319,6.737,2.599,10.535,3.828c12.265,3.968,26.429,7.067,41.772,9.216
	c2.159,15.343,5.258,29.507,9.226,41.772c1.239,3.848,2.539,7.387,3.868,10.655C186.48,346.936,162.51,322.956,151.185,292.829z
	 M271.953,334.551c-6.577,22.27-13.794,29.427-15.943,30.527l-0.01,0.01c-2.139-1.09-9.366-8.236-15.953-30.537
	c-2.299-7.807-4.228-16.473-5.768-25.739c7.117,0.39,14.374,0.59,21.721,0.59h0.01c7.347,0,14.594-0.2,21.711-0.59
	C276.181,318.078,274.252,326.745,271.953,334.551z M281.189,278.565c-8.196,0.55-16.623,0.85-25.179,0.85H256
	c-8.556,0-16.993-0.3-25.189-0.85c-0.56-8.206-0.86-16.633-0.86-25.189s0.3-16.993,0.86-25.199c8.196-0.55,16.633-0.85,25.189-0.85
	h0.01c8.556,0,16.983,0.3,25.179,0.85c0.56,8.206,0.86,16.643,0.86,25.199C282.049,261.932,281.749,270.359,281.189,278.565z
	 M295.413,358.301c1.329-3.269,2.629-6.807,3.868-10.655c3.968-12.265,7.067-26.429,9.226-41.772
	c15.343-2.149,29.507-5.248,41.772-9.216c3.798-1.229,7.297-2.509,10.535-3.828C349.49,322.956,325.52,346.936,295.413,358.301z
	 M337.175,269.319c-7.807,2.309-16.463,4.238-25.729,5.777c0.38-7.127,0.59-14.384,0.59-21.721c0-7.347-0.21-14.604-0.59-21.731
	c9.266,1.549,17.922,3.479,25.729,5.778c22.3,6.587,29.447,13.814,30.547,15.953C366.622,255.505,359.476,262.742,337.175,269.319z"
	/>
<path style="fill:#77FEF6;" d="M256.01,111.577v30.087c2.149,1.1,9.366,8.256,15.943,30.537c2.299,7.797,4.228,16.463,5.768,25.729
	c-7.117-0.38-14.364-0.59-21.711-0.59v29.987c8.556,0,16.983,0.3,25.179,0.85c0.56,8.206,0.86,16.643,0.86,25.199
	c0,8.556-0.3,16.983-0.86,25.189c-8.196,0.55-16.623,0.85-25.179,0.85v29.987c7.347,0,14.594-0.2,21.711-0.59
	c-1.539,9.266-3.469,17.932-5.768,25.739c-6.577,22.27-13.794,29.427-15.943,30.527v30.377
	c78.266-0.01,141.929-63.673,141.929-141.939S334.276,111.587,256.01,111.577z M360.685,213.863
	c-3.199-1.299-6.657-2.559-10.406-3.778c-12.265-3.968-26.429-7.067-41.772-9.216c-2.159-15.343-5.258-29.507-9.226-41.772
	c-1.199-3.708-2.439-7.137-3.728-10.306C325.48,160.126,349.32,183.946,360.685,213.863z M295.413,358.301
	c1.329-3.269,2.629-6.807,3.868-10.655c3.968-12.265,7.067-26.429,9.226-41.772c15.343-2.149,29.507-5.248,41.772-9.216
	c3.798-1.229,7.297-2.509,10.535-3.828C349.49,322.956,325.52,346.936,295.413,358.301z M337.175,269.319
	c-7.807,2.309-16.463,4.238-25.729,5.777c0.38-7.127,0.59-14.384,0.59-21.721c0-7.347-0.21-14.604-0.59-21.731
	c9.266,1.549,17.922,3.479,25.729,5.778c22.3,6.587,29.447,13.814,30.547,15.953C366.622,255.505,359.476,262.742,337.175,269.319z"
	/>
<g>
</g>
<g>
</g>
<g>
</g>
<g>
</g>
<g>
</g>
<g>
</g>
<g>
</g>
<g>
</g>
<g>
</g>
<g>
</g>
<g>
</g>
<g>
</g>
<g>
</g>
<g>
</g>
<g>
</g>
</svg>
