<?xml version="1.0" encoding="UTF-8" standalone="no"?>
<!-- Created with Inkscape (http://www.inkscape.org/) -->

<svg
   xmlns:dc="http://purl.org/dc/elements/1.1/"
   xmlns:cc="http://creativecommons.org/ns#"
   xmlns:rdf="http://www.w3.org/1999/02/22-rdf-syntax-ns#"
   xmlns:svg="http://www.w3.org/2000/svg"
   xmlns="http://www.w3.org/2000/svg"
   xmlns:sodipodi="http://sodipodi.sourceforge.net/DTD/sodipodi-0.dtd"
   xmlns:inkscape="http://www.inkscape.org/namespaces/inkscape"
   id="svg2"
   version="1.1"
   inkscape:version="0.92.2 2405546, 2018-03-11"
   xml:space="preserve"
   width="811.59991"
   height="263.65375"
   viewBox="0 0 811.59992 263.65375"
   sodipodi:docname="logo.svg"><metadata
     id="metadata8"><rdf:RDF><cc:Work
         rdf:about=""><dc:format>image/svg+xml</dc:format><dc:type
           rdf:resource="http://purl.org/dc/dcmitype/StillImage" /><dc:title></dc:title></cc:Work></rdf:RDF></metadata><defs
     id="defs6" /><sodipodi:namedview
     pagecolor="#ffffff"
     bordercolor="#666666"
     borderopacity="1"
     objecttolerance="10"
     gridtolerance="10"
     guidetolerance="10"
     inkscape:pageopacity="0"
     inkscape:pageshadow="2"
     inkscape:window-width="1920"
     inkscape:window-height="1060"
     id="namedview4"
     showgrid="false"
     inkscape:zoom="0.76053416"
     inkscape:cx="321.63867"
     inkscape:cy="-99.166046"
     inkscape:window-x="1920"
     inkscape:window-y="20"
     inkscape:window-maximized="0"
     inkscape:current-layer="g10"
     fit-margin-top="0"
     fit-margin-left="0"
     fit-margin-right="0"
     fit-margin-bottom="0" /><g
     id="g10"
     inkscape:groupmode="layer"
     inkscape:label="ink_ext_XXXXXX"
     transform="matrix(1.25,0,0,-1.25,-0.0025786,303.9325)"><path
       inkscape:connector-curvature="0"
       id="path14"
       style="fill:#696566;fill-opacity:1;fill-rule:nonzero;stroke:none"
       d="m 119.073,226.112 -35.5597,8.231 v 0.003 l -0.0059,-0.002 -0.009,0.002 v -0.005 C 83.1855,234.223 50.4387,221.889 23.8043,200.074 -2.9566,178.148 12.37188,160.908 12.37188,160.908 c -2.41094,7.262 -5.88399,18.788 18.24142,36.443 23.3918,17.12 52.8851,27.44 52.8851,27.44 v -0.013 l 35.5746,-8.16 v 9.494" /><path
       inkscape:connector-curvature="0"
       id="path16"
       style="fill:#696566;fill-opacity:1;fill-rule:nonzero;stroke:none"
       d="m 119.073,201.409 v 7.941 l -35.5746,7.941 C 69.0219,211.696 51.7621,203.39 51.7621,203.39 5.62891,180.868 12.84688,161.506 12.84688,161.506 c 0,0 -2.78282,10.726 22.81092,25.842 25.5961,15.122 47.8406,22.002 47.8406,22.002 l 35.5746,-7.941" /><path
       inkscape:connector-curvature="0"
       id="path18"
       style="fill:#696566;fill-opacity:1;fill-rule:nonzero;stroke:none"
       d="m 27.4594,91.241 h 0.0097 l -1.0105,74.402 H 26.448 c 0,0.006 0.0051,0.01 0.0051,0.014 -0.0027,0.884 -2.1293,1.595 -4.7523,1.584 -2.586,-0.008 -4.67697,-0.712 -4.734,-1.584 h -0.0035 v -0.01 c 0,-0.008 -0.0074,-0.019 -0.0074,-0.027 0,-0.008 0.0074,-0.015 0.0074,-0.021 L 15.88047,91.2559 h 0.01875 c -0.0027,-0.0321 -0.02383,-0.059 -0.02383,-0.0899 0.0051,-1.0879 2.45901,-1.9828 5.71131,-1.968 3.2563,0.009 5.8934,0.9032 5.8883,1.995 0,0.016 -0.0137,0.0308 -0.0156,0.048" /><path
       inkscape:connector-curvature="0"
       id="path20"
       style="fill:#696566;fill-opacity:1;fill-rule:nonzero;stroke:none"
       d="m 47.8613,86.541 h 0.0121 l -1.2562,92.429 h -0.0113 c 0,0.007 0.0035,0.012 0.0035,0.018 -0.0035,1.097 -2.6453,1.979 -5.9031,1.968 -3.2118,-0.012 -5.8098,-0.887 -5.8793,-1.967 h -0.0051 v -0.016 c 0,-0.01 -0.009,-0.021 -0.009,-0.031 0,-0.01 0.007,-0.019 0.009,-0.028 L 33.4762,86.5602 h 0.025 c -0.0047,-0.0364 -0.0305,-0.0731 -0.0305,-0.1114 0.0066,-1.3527 3.0527,-2.4636 7.0945,-2.4449 4.0438,0.0102 7.32,1.1223 7.3149,2.4789 0,0.0203 -0.0168,0.0391 -0.0188,0.0582" /><path
       inkscape:connector-curvature="0"
       id="path22"
       style="fill:#696566;fill-opacity:1;fill-rule:nonzero;stroke:none"
       d="m 71.8766,81.1699 h 0.0152 L 70.3813,192.15 h -0.0118 c 0,0.007 0.0051,0.013 0.0051,0.019 -0.0051,1.32 -3.1781,2.381 -7.0898,2.365 -3.8571,-0.014 -6.9746,-1.064 -7.059,-2.363 h -0.0055 v -0.019 c 0,-0.012 -0.0113,-0.023 -0.0113,-0.035 0,-0.012 0.0094,-0.022 0.0094,-0.033 L 54.6035,81.1941 h 0.0297 c -0.0047,-0.0453 -0.0363,-0.0882 -0.0363,-0.1339 0.0086,-1.6231 3.6683,-2.9571 8.5207,-2.9372 4.8547,0.0141 8.7879,1.3481 8.7804,2.9782 0,0.0258 -0.0195,0.0468 -0.0214,0.0687" /><path
       inkscape:connector-curvature="0"
       id="path24"
       style="fill:#696566;fill-opacity:1;fill-rule:nonzero;stroke:none"
       d="m 8.930078,86.9191 c 0,0 28.803522,-18.8781 84.999622,-22.8871 l 25.1443,5.716 V 46.627 L 93.9465,40.223 c 0,0 -62.5039,8.884 -85.036734,38.2372 l 0.020312,8.4589" /><path
       inkscape:connector-curvature="0"
       id="path26"
       style="fill:#0e315f;fill-opacity:1;fill-rule:nonzero;stroke:none"
       d="m 112.854,179.762 15.851,0.056 0.004,-1.663 c -4.103,-0.172 -5.091,-0.486 -5.232,-4.436 l 0.062,-17.619 c 0.008,-2.131 0.014,-4.21 0.644,-5.921 1.364,-3.633 5.322,-5.647 9.841,-5.633 3.536,0.013 6.701,1.271 8.565,3.2 2.486,2.558 2.475,5.676 2.461,9.625 l -0.051,15.073 c -0.173,4.624 -0.748,5.454 -5.115,5.697 l -0.006,1.718 12.422,0.042 0.005,-1.662 c -3.896,-0.535 -5.036,-1.578 -5.123,-6.101 l 0.052,-14.917 c -0.137,-5.508 -0.173,-9.819 -5.517,-12.906 -2.852,-1.622 -5.604,-2.047 -8.67,-2.059 -4.367,-0.015 -8.788,0.855 -11.864,3.857 -2.869,2.85 -2.982,5.498 -3.096,8.304 l -0.066,18.867 c -0.059,1.975 -0.063,2.857 -0.74,3.687 -0.835,1.037 -2.082,1.084 -4.422,1.181 l -0.005,1.61" /><path
       inkscape:connector-curvature="0"
       id="path28"
       style="fill:#0e315f;fill-opacity:1;fill-rule:nonzero;stroke:none"
       d="m 172.038,172.145 9.938,0.036 0.004,-1.432 c -0.94,-0.043 -1.881,-0.13 -2.656,-0.582 -1.183,-0.741 -1.385,-1.886 -1.458,-4.135 l 0.082,-22.979 -1.882,-0.009 -15.244,21.088 c -1.274,1.757 -1.603,2.245 -2.959,4.488 l 0.065,-19.258 c 0.007,-1.146 0.051,-2.412 0.544,-3.27 0.906,-1.509 2.704,-1.504 3.686,-1.5 l 0.005,-1.35 -10.305,-0.036 -0.006,1.392 c 0.777,0.042 1.595,0.086 2.329,0.416 1.88,0.825 1.955,2.706 1.988,4.422 l -0.065,18.894 c -0.17,2.166 -1.316,2.241 -4.056,2.397 l -0.006,1.348 8.263,0.029 12.653,-17.456 c 1.52,-2.078 1.932,-2.692 3.247,-4.732 l -0.057,16.478 c -0.092,3.272 -0.873,4.088 -4.105,4.36 l -0.005,1.391" /><path
       inkscape:connector-curvature="0"
       id="path30"
       style="fill:#0e315f;fill-opacity:1;fill-rule:nonzero;stroke:none"
       d="m 184.428,172.188 12.511,0.046 0.006,-1.349 c -3.026,-0.094 -4.09,-0.22 -4.078,-3.124 l 0.068,-19.545 c 0.004,-1.432 0.049,-2.168 0.663,-2.779 0.657,-0.651 1.516,-0.689 3.643,-0.681 l 0.004,-1.392 -12.962,-0.043 -0.005,1.389 c 3.722,0.095 4.253,0.219 4.322,3.941 l -0.069,19.177 c -0.001,0.818 -0.005,1.634 -0.744,2.288 -0.616,0.569 -1.432,0.648 -3.354,0.765 l -0.005,1.307" /><path
       inkscape:connector-curvature="0"
       id="path32"
       style="fill:#0e315f;fill-opacity:1;fill-rule:nonzero;stroke:none"
       d="m 198.739,172.281 11.858,0.04 0.006,-1.35 c -2.25,-0.046 -3.436,-0.094 -3.431,-1.401 0.001,-0.368 0.125,-0.736 0.495,-1.511 l 5.154,-12.21 c 1.485,-3.592 1.733,-4.245 2.931,-7.554 l 7.578,19.245 c 0.447,1.024 0.57,1.434 0.568,1.883 -0.002,0.33 -0.087,0.982 -0.824,1.307 -0.368,0.161 -0.411,0.161 -2.74,0.235 l -0.005,1.391 9.936,0.034 0.004,-1.349 c -3.598,-0.259 -3.921,-0.995 -4.935,-3.576 l -9.931,-24.486 -1.595,-0.006 -10.926,25.192 c -0.864,1.917 -1.44,2.447 -4.139,2.766 l -0.004,1.35" /><path
       inkscape:connector-curvature="0"
       id="path34"
       style="fill:#0e315f;fill-opacity:1;fill-rule:nonzero;stroke:none"
       d="m 232.146,172.397 20.894,0.073 0.844,-7.152 -1.31,-0.006 c -1.529,4.658 -2.513,5.593 -6.479,5.621 l -5.604,-0.019 0.041,-11.367 2.699,0.008 c 1.063,0.044 2.207,0.091 3.062,1.034 0.775,0.859 0.893,2.087 0.972,3.03 l 1.268,0.003 0.035,-9.815 -1.31,-0.003 c -0.044,1.023 -0.088,2.005 -0.541,2.78 -0.821,1.384 -2.335,1.462 -3.439,1.499 l -2.741,-0.009 0.034,-9.447 c 0.004,-1.391 0.089,-2.491 1.729,-3.14 1.187,-0.489 2.291,-0.484 4.008,-0.479 1.84,0.006 4.129,0.098 5.923,1.78 1.548,1.437 2.277,3.566 2.637,5.775 l 1.268,0.005 -0.499,-8.999 -23.635,-0.082 -0.005,1.391 c 3.433,0.133 4.129,0.301 4.283,3.162 l -0.071,19.792 c -0.001,0.778 -0.005,1.799 -0.623,2.45 -0.614,0.651 -1.228,0.691 -3.435,0.766 l -0.005,1.349" /><path
       inkscape:connector-curvature="0"
       id="path36"
       style="fill:#0e315f;fill-opacity:1;fill-rule:nonzero;stroke:none"
       d="m 258.561,172.489 9.977,0.036 c 2.372,0.007 5.519,0.018 7.812,-0.831 2.907,-1.013 4.798,-3.419 4.809,-6.528 0.005,-1.552 -0.48,-3.311 -2.028,-4.87 -1.957,-1.889 -4.082,-2.223 -5.839,-2.434 3.477,-0.848 3.684,-1.132 6.395,-4.844 l 3.985,-5.589 c 1.603,-2.161 1.891,-2.365 4.223,-2.397 l 0.002,-1.35 -6.624,-0.023 c -0.9,0.814 -1.434,1.344 -2.339,2.69 -0.452,0.694 -2.551,4.163 -3.044,4.939 -3.783,6.08 -3.946,6.078 -8.934,5.937 l 0.029,-8.587 c 0.004,-1.225 0.049,-2.289 0.789,-2.981 0.696,-0.651 1.474,-0.65 3.559,-0.726 l 0.006,-1.306 -12.882,-0.046 -0.005,1.309 c 3.231,0.174 4.252,0.342 4.24,3.655 l -0.066,19.052 c -0.006,1.27 -0.048,2.128 -0.664,2.739 -0.615,0.651 -1.148,0.649 -3.397,0.805 z m 11.702,-13.861 c 1.348,0.045 2.452,0.131 3.391,0.544 2.246,1.028 2.81,3.485 2.802,5.734 -0.011,3.514 -1.488,4.697 -2.553,5.309 -1.598,0.892 -3.152,0.887 -6.996,0.831 l 0.042,-12.43 3.314,0.012" /><path
       inkscape:connector-curvature="0"
       id="path38"
       style="fill:#0e315f;fill-opacity:1;fill-rule:nonzero;stroke:none"
       d="m 290.155,152.727 c 0.292,-1.305 1.164,-5.108 4.524,-7.016 1.23,-0.693 2.619,-0.973 3.888,-0.97 3.516,0.015 5.919,2.231 5.908,5.296 -0.008,2.946 -2.017,4.288 -2.879,4.816 -0.982,0.651 -1.431,0.936 -5.816,3.128 -3.277,1.707 -6.432,3.29 -6.448,7.869 -0.017,5.276 4.35,7.459 8.03,7.471 1.063,0.003 2.127,-0.197 2.986,-0.439 1.761,-0.485 2.54,-1.012 3.483,-1.705 0.405,0.655 0.528,0.818 0.892,1.678 l 0.943,0.004 0.149,-7.809 -1.269,-0.007 c -0.332,1.391 -0.746,2.903 -1.609,4.126 -1.151,1.592 -3.158,2.769 -5.489,2.761 -3.066,-0.011 -4.819,-1.896 -4.81,-4.187 0.004,-1.063 0.416,-1.963 0.908,-2.613 0.945,-1.183 2.42,-2.037 7.622,-4.677 3.318,-1.707 6.432,-3.289 6.451,-8.524 0.004,-1.063 -0.114,-2.576 -0.764,-4.05 -0.688,-1.597 -2.966,-4.835 -7.71,-4.851 -0.818,-0.004 -1.799,0.074 -2.986,0.399 -2.499,0.643 -3.932,1.743 -5.08,2.638 -0.529,-1.228 -0.568,-1.392 -0.973,-2.496 l -1.268,-0.005 -0.032,9.158 1.349,0.005" /><path
       inkscape:connector-curvature="0"
       id="path40"
       style="fill:#0e315f;fill-opacity:1;fill-rule:nonzero;stroke:none"
       d="m 310.531,172.63 12.513,0.045 0.004,-1.349 c -3.027,-0.093 -4.089,-0.219 -4.078,-3.122 l 0.068,-19.547 c 0.006,-1.43 0.049,-2.166 0.664,-2.779 0.656,-0.649 1.515,-0.689 3.642,-0.682 l 0.004,-1.389 -12.961,-0.046 -0.005,1.39 c 3.72,0.096 4.252,0.219 4.321,3.942 l -0.068,19.178 c -0.004,0.818 -0.005,1.636 -0.743,2.285 -0.616,0.57 -1.434,0.65 -3.356,0.766 l -0.005,1.308" /><path
       inkscape:connector-curvature="0"
       id="path42"
       style="fill:#0e315f;fill-opacity:1;fill-rule:nonzero;stroke:none"
       d="m 325.66,172.724 24.82,0.087 0.72,-7.316 -1.185,-0.004 c -0.371,1.348 -0.869,3.064 -2.101,4.284 -1.435,1.386 -3.071,1.422 -4.706,1.417 l -2.986,-0.012 0.081,-22.939 c 0.045,-1.348 0.253,-2.412 1.768,-2.814 0.326,-0.079 0.573,-0.079 2.453,-0.197 l 0.007,-1.349 -12.923,-0.047 -0.004,1.352 c 3.312,0.176 4.334,0.301 4.324,3.244 l -0.081,22.734 -3.149,-0.01 c -2.534,-0.09 -3.556,-0.258 -4.656,-1.612 -0.976,-1.228 -1.463,-2.54 -1.907,-4.137 l -1.267,-0.005 0.792,7.324" /><path
       inkscape:connector-curvature="0"
       id="path44"
       style="fill:#0e315f;fill-opacity:1;fill-rule:nonzero;stroke:none"
       d="m 352.157,172.818 12.348,0.043 0.003,-1.391 c -1.88,0.033 -3.188,0.029 -3.184,-1.075 0,-0.327 0.166,-0.693 0.455,-1.184 l 6.169,-10.734 6.26,10.492 c 0.246,0.45 0.488,0.861 0.488,1.229 -0.005,1.143 -1.273,1.182 -3.971,1.293 l -0.004,1.391 10.306,0.036 0.002,-1.389 c -2.656,-0.215 -3.556,-0.546 -5.102,-2.922 l -7.112,-11.8 0.029,-8.546 c 0.009,-2.658 1.155,-2.902 4.344,-2.971 l 0.006,-1.308 -13.003,-0.047 -0.007,1.309 c 1.883,0.13 2.209,0.171 2.657,0.296 1.472,0.414 1.632,1.436 1.667,2.951 l -0.027,8.177 -7.689,12.241 c -1.357,2.038 -2.137,2.363 -4.63,2.518 l -0.005,1.391" /><path
       inkscape:connector-curvature="0"
       id="path46"
       style="fill:#0e315f;fill-opacity:1;fill-rule:nonzero;stroke:none"
       d="m 396.342,165.776 c 1.745,3.44 5.985,7.912 13.793,7.939 1.308,0.005 2.659,-0.154 3.969,-0.435 5.81,-1.287 11.267,-6.258 11.296,-14.558 0.029,-8.629 -5.916,-15.274 -15.405,-15.308 -8.749,-0.029 -15.229,5.916 -15.262,14.872 -0.009,2.576 0.474,5.196 1.609,7.49 m 7.631,4.645 c -3.387,-2.627 -4.268,-7.087 -4.255,-11.423 0.007,-1.757 0.136,-3.515 0.469,-5.273 0.25,-1.39 0.915,-4.496 3.334,-6.611 1.068,-0.938 3.157,-2.237 6.47,-2.227 3.394,0.013 6.087,1.411 7.634,3.297 1.792,2.133 2.803,5.938 2.787,10.765 -0.008,2.126 -0.187,5.969 -1.956,8.947 -1.81,2.98 -4.922,4.482 -8.438,4.47 -1.636,-0.005 -3.926,-0.301 -6.045,-1.945" /><path
       inkscape:connector-curvature="0"
       id="path48"
       style="fill:#0e315f;fill-opacity:1;fill-rule:nonzero;stroke:none"
       d="m 426.862,173.038 20.894,0.073 0.8,-7.03 -1.267,-0.005 c -0.536,1.511 -1.115,3.145 -2.1,4.204 -1.272,1.304 -2.662,1.341 -4.543,1.374 l -5.438,-0.018 0.04,-11.409 3.108,0.012 c 0.899,0.002 1.758,0.047 2.53,0.825 0.94,0.945 0.974,2.213 1.015,3.193 l 1.347,0.004 0.036,-9.811 -1.35,-0.005 c -0.004,0.981 -0.01,2.126 -0.624,3.024 -0.865,1.223 -2.172,1.26 -3.072,1.296 l -2.986,-0.01 0.031,-8.913 c 0.01,-2.25 0.135,-3.149 0.915,-3.719 0.574,-0.447 0.981,-0.446 3.394,-0.561 l 0.004,-1.347 -12.921,-0.047 -0.002,1.391 c 2.286,0.049 3.432,0.094 4,1.242 0.285,0.57 0.324,1.349 0.317,2.903 l -0.067,19.014 c -0.004,0.696 -0.004,1.593 -0.659,2.247 -0.658,0.611 -1.639,0.689 -3.397,0.765 l -0.005,1.308" /><path
       inkscape:connector-curvature="0"
       id="path50"
       style="fill:#0e315f;fill-opacity:1;fill-rule:nonzero;stroke:none"
       d="m 155.383,134.76 13.18,0.046 0.006,-2.134 c -2.947,-0.198 -3.639,-0.201 -4.515,-0.705 -2.006,-1.012 -1.936,-3.332 -1.866,-4.902 l 0.351,-28.238 c 0.004,-1.8192 0.01,-3.3879 0.517,-4.4532 0.821,-1.6297 2.014,-1.6886 5.967,-1.8617 l 0.007,-2.0101 -19.704,-0.068 -0.007,2.0699 c 3.137,0.1371 3.951,0.2039 4.829,0.707 1.69,0.9481 1.873,2.895 1.864,4.9661 l -0.138,22.277 c 0.047,4.017 0.044,5.207 0.278,9.538 -0.62,-1.82 -0.994,-2.951 -1.987,-5.401 l -14.064,-34.1879 -2.07,-0.009 -13.86,33.0229 c -1.075,2.696 -1.139,2.947 -2.217,5.955 -0.105,-6.151 -0.146,-12.3 -0.124,-18.388 0.019,-5.6469 0.091,-8.4711 0.168,-12.1738 0.139,-3.8282 0.648,-5.9582 6.549,-6.377 l 0.008,-2.0723 -15.814,-0.055 -0.007,2.0722 c 5.331,0.7699 6.08,2.0297 6.378,6.3578 l 0.28,27.5511 c 0.043,5.649 -1.088,6.272 -6.361,6.315 l -0.007,2.01 13.305,0.047 10.693,-25.253 c 1.774,-4.513 2.28,-5.7669 3.865,-10.2162 l 14.496,35.5702" /><path
       inkscape:connector-curvature="0"
       id="path52"
       style="fill:#0e315f;fill-opacity:1;fill-rule:nonzero;stroke:none"
       d="m 188.509,125.873 1.58,0.006 11.604,-28.4001 c 1.444,-3.5 2.14,-5.0258 5.745,-5.2598 l 0.005,-1.5812 -14.613,-0.05 -0.006,1.5793 c 2.518,0.0078 4.492,0.0137 4.487,1.793 -0.002,0.4437 -0.103,0.7898 -0.65,2.1679 l -2.839,7.1008 -12.048,-0.0418 -2.445,-6.3293 c -0.44,-1.334 -0.636,-1.9289 -0.634,-2.4699 0.006,-1.6777 1.488,-2.068 3.959,-2.2551 l 0.005,-1.5816 -11.455,-0.0383 -0.006,1.5793 c 3.405,0.4039 4.341,1.2957 5.809,4.759 z m 1.925,-14.066 c -1.246,3.207 -1.444,3.799 -2.592,7.151 l -5.383,-13.99 10.617,0.0371 -2.642,6.8019" /><path
       inkscape:connector-curvature="0"
       id="path54"
       style="fill:#0e315f;fill-opacity:1;fill-rule:nonzero;stroke:none"
       d="m 209.296,125.551 12.048,0.043 c 2.864,0.009 6.664,0.023 9.433,-1.006 3.511,-1.22 5.792,-4.125 5.805,-7.878 0.006,-1.876 -0.579,-4 -2.45,-5.883 -2.361,-2.28 -4.927,-2.685 -7.05,-2.9391 4.202,-1.0219 4.449,-1.368 7.723,-5.8481 l 4.814,-6.7457 c 1.934,-2.6101 2.28,-2.8582 5.093,-2.8961 l 0.008,-1.63 -7.999,-0.0301 c -1.089,0.9859 -1.733,1.6262 -2.825,3.2512 -0.548,0.8379 -3.078,5.0238 -3.675,5.9621 -4.567,7.3398 -4.766,7.3398 -10.789,7.1679 l 0.038,-10.3652 c 0.005,-1.4809 0.058,-2.766 0.948,-3.6019 0.844,-0.7879 1.783,-0.784 4.3,-0.875 l 0.006,-1.579 -15.552,-0.055 -0.005,1.58 c 3.899,0.2122 5.133,0.4141 5.12,4.4129 l -0.082,23.0091 c -0.007,1.527 -0.059,2.565 -0.801,3.303 -0.743,0.788 -1.384,0.787 -4.103,0.972 z m 14.13,-16.739 c 1.629,0.056 2.962,0.159 4.095,0.657 2.712,1.245 3.394,4.209 3.382,6.924 -0.013,4.247 -1.796,5.671 -3.081,6.408 -1.93,1.081 -3.806,1.074 -8.447,1.008 l 0.051,-15.01 4,0.013" /><path
       inkscape:connector-curvature="0"
       id="path56"
       style="fill:#0e315f;fill-opacity:1;fill-rule:nonzero;stroke:none"
       d="m 240.4,125.66 14.91,0.053 0.007,-1.68 c -2.272,0.043 -3.851,0.036 -3.848,-1.295 0.002,-0.397 0.202,-0.841 0.549,-1.433 l 7.452,-12.959 7.557,12.666 c 0.295,0.547 0.591,1.04 0.589,1.483 -0.006,1.384 -1.535,1.429 -4.793,1.564 l -0.006,1.679 12.44,0.044 0.007,-1.677 c -3.209,-0.259 -4.294,-0.659 -6.162,-3.53 l -8.588,-14.2469 0.034,-10.3211 c 0.015,-3.207 1.395,-3.4992 5.246,-3.5859 l 0.007,-1.5789 -15.701,-0.057 -0.005,1.5828 c 2.271,0.155 2.666,0.2039 3.209,0.3558 1.776,0.4992 1.968,1.7364 2.01,3.5621 l -0.033,9.875 -9.287,14.7781 c -1.636,2.465 -2.576,2.854 -5.588,3.042 l -0.006,1.679" /><path
       inkscape:connector-curvature="0"
       id="path58"
       style="fill:#0e315f;fill-opacity:1;fill-rule:nonzero;stroke:none"
       d="m 288.87,135.227 17.757,0.062 0.008,-2.007 c -0.69,-0.066 -2.447,-0.134 -3.01,-0.263 -0.501,-0.126 -2.007,-0.446 -2.001,-2.201 10e-4,-0.504 0.129,-1.005 0.509,-2.26 l 5.337,-18.305 c 1.271,-4.387 1.525,-5.455 2.544,-9.969 l 10.609,35.055 2.006,0.008 8.939,-25.636 c 1.331,-4.011 1.649,-5.0169 2.856,-9.154 0.494,2.3258 0.618,2.952 1.363,5.402 l 6.386,21.987 c 0.246,1.005 0.496,1.883 0.493,2.637 -0.01,2.574 -2.521,2.628 -5.846,2.74 l -0.007,2.072 15.248,0.054 0.006,-2.072 c -4.515,-0.392 -5.768,-0.897 -7.07,-5.107 l -11.039,-37.943 -2.383,-0.009 -11.792,33.595 -10.236,-33.6708 -2.572,-0.0102 -11.68,37.738 c -1.141,3.448 -1.837,4.765 -6.419,5.312 l -0.006,1.945" /><path
       inkscape:connector-curvature="0"
       id="path60"
       style="fill:#0e315f;fill-opacity:1;fill-rule:nonzero;stroke:none"
       d="m 355.756,126.459 1.58,0.005 11.604,-28.398 c 1.444,-3.5031 2.14,-5.0281 5.745,-5.2629 l 0.006,-1.5812 -14.615,-0.0489 -0.005,1.5801 c 2.519,0.0071 4.493,0.0129 4.485,1.7918 0,0.4449 -0.099,0.791 -0.649,2.1692 l -2.837,7.1 -12.049,-0.0411 -2.446,-6.3289 c -0.439,-1.3351 -0.634,-1.9293 -0.634,-2.4711 0.008,-1.6781 1.49,-2.0699 3.96,-2.2582 l 0.005,-1.5777 -11.455,-0.041 -0.006,1.5809 c 3.405,0.4039 4.342,1.2992 5.809,4.7589 z m 1.926,-14.066 c -1.246,3.205 -1.447,3.796 -2.593,7.151 l -5.381,-13.9901 10.616,0.0352 -2.642,6.8039" /><path
       inkscape:connector-curvature="0"
       id="path62"
       style="fill:#0e315f;fill-opacity:1;fill-rule:nonzero;stroke:none"
       d="m 378.701,102.1469 c 0.353,-1.5778 1.403,-6.166 5.461,-8.4707 1.485,-0.8352 3.165,-1.1742 4.695,-1.1692 4.245,0.016 7.148,2.691 7.134,6.395 -0.01,3.5539 -2.435,5.1761 -3.472,5.8121 -1.188,0.7871 -1.733,1.1289 -7.026,3.7769 -3.956,2.062 -7.766,3.974 -7.786,9.502 -0.022,6.368 5.254,9.006 9.696,9.02 1.283,0.005 2.567,-0.237 3.605,-0.53 2.127,-0.585 3.067,-1.223 4.206,-2.059 0.489,0.791 0.638,0.991 1.076,2.03 l 1.138,0.002 0.18,-9.43 -1.53,-0.005 c -0.401,1.677 -0.9,3.504 -1.945,4.978 -1.388,1.923 -3.811,3.347 -6.624,3.335 -3.705,-0.013 -5.82,-2.29 -5.808,-5.055 0.002,-1.284 0.5,-2.37 1.097,-3.156 1.138,-1.429 2.92,-2.459 9.202,-5.647 4.005,-2.057 7.767,-3.969 7.788,-10.292 0.004,-1.2809 -0.137,-3.109 -0.922,-4.8899 -0.831,-1.93 -3.583,-5.8371 -9.31,-5.8601 -0.99,-0.0031 -2.175,0.0922 -3.606,0.484 -3.016,0.7769 -4.748,2.1039 -6.134,3.1859 -0.637,-1.482 -0.686,-1.6809 -1.176,-3.0148 l -1.531,-0.0063 -0.037,11.0594 1.629,0.005" /><path
       inkscape:connector-curvature="0"
       id="path64"
       style="fill:#0e315f;fill-opacity:1;fill-rule:nonzero;stroke:none"
       d="m 403.302,126.179 15.109,0.054 0.006,-1.53 c -2.321,-0.107 -2.469,-0.158 -2.961,-0.256 -1.776,-0.549 -1.918,-2.18 -1.915,-3.712 l 0.036,-9.825 17.28,0.061 -0.034,9.627 c -0.111,3.851 -1.396,3.897 -4.901,4.081 l -0.006,1.583 15.058,0.049 0.006,-1.578 c -2.023,-0.156 -2.173,-0.156 -2.617,-0.257 -1.973,-0.5 -2.214,-1.933 -2.257,-3.81 l 0.083,-23.5488 c -0.036,-3.7531 1.149,-3.8973 5.099,-4.0313 l 0.006,-1.6308 -15.601,-0.0539 -0.006,1.5789 c 4.591,0.264 5.135,0.3648 5.218,4.3648 l -0.04,11.4041 -17.331,-0.062 0.04,-11.4042 c 0.006,-1.0359 0.009,-2.3699 0.703,-3.2066 0.796,-0.9332 1.782,-0.9801 4.449,-1.0692 l 0.004,-1.6289 -15.65,-0.0562 -0.006,1.6801 c 2.517,0.255 2.565,0.255 3.059,0.3558 1.677,0.4012 2.118,1.1422 2.162,3.1672 l -0.088,25.179 c -0.003,0.642 -0.055,1.284 -0.598,1.874 -0.844,0.885 -2.178,0.981 -4.3,1.12 l -0.007,1.481" /><path
       inkscape:connector-curvature="0"
       id="path66"
       style="fill:#0e315f;fill-opacity:1;fill-rule:nonzero;stroke:none"
       d="m 444.429,126.324 15.11,0.053 0.004,-1.629 c -3.652,-0.111 -4.935,-0.263 -4.922,-3.77 l 0.083,-23.5991 c 0.004,-1.7301 0.059,-2.6168 0.802,-3.3551 0.79,-0.7859 1.828,-0.834 4.394,-0.825 l 0.009,-1.6777 -15.653,-0.0539 -0.006,1.6789 c 4.493,0.1141 5.133,0.2629 5.217,4.757 l -0.081,23.1559 c -0.003,0.988 -0.007,1.975 -0.898,2.763 -0.744,0.687 -1.732,0.782 -4.052,0.923 l -0.007,1.579" /><path
       inkscape:connector-curvature="0"
       id="path68"
       style="fill:#0e315f;fill-opacity:1;fill-rule:nonzero;stroke:none"
       d="m 487.086,126.473 12,0.043 0.003,-1.73 c -1.133,-0.051 -2.267,-0.155 -3.203,-0.7 -1.429,-0.895 -1.673,-2.277 -1.76,-4.993 l 0.096,-27.7481 -2.271,-0.007 -18.407,25.4621 c -1.537,2.115 -1.934,2.707 -3.573,5.416 l 0.079,-23.2531 c 0.004,-1.3828 0.061,-2.9117 0.658,-3.9481 1.092,-1.8226 3.264,-1.816 4.449,-1.8097 l 0.007,-1.6313 -12.445,-0.0418 -0.003,1.6782 c 0.938,0.0527 1.924,0.1046 2.814,0.5027 2.266,0.9949 2.358,3.266 2.398,5.3402 l -0.079,22.8109 c -0.208,2.615 -1.591,2.711 -4.901,2.896 l -0.002,1.629 9.972,0.036 15.28,-21.0789 c 1.836,-2.5121 2.333,-3.2512 3.921,-5.7121 l -0.069,19.895 c -0.113,3.95 -1.055,4.934 -4.956,5.266 l -0.008,1.678" /><path
       inkscape:connector-curvature="0"
       id="path70"
       style="fill:#0e315f;fill-opacity:1;fill-rule:nonzero;stroke:none"
       d="m 530.746,94.3852 c -1.233,-0.25 -2.465,-0.5012 -3.65,-0.8512 -1.678,-0.5 -3.254,-1.2442 -4.931,-1.7442 -1.921,-0.6007 -3.898,-0.9039 -5.921,-0.9097 -10.172,-0.0371 -17.061,7.6918 -17.095,17.4179 -0.037,10.27 7.339,19.132 17.757,19.169 5.428,0.019 9.093,-2.389 10.677,-3.468 0.59,1.04 0.736,1.385 1.173,2.619 l 1.435,0.006 0.24,-11.996 -1.533,-0.006 c -0.5,2.32 -2.507,11.101 -11.839,11.069 -7.109,-0.027 -11.827,-5.671 -11.791,-16.532 0.014,-3.8039 0.667,-7.1078 1.81,-9.5238 1.741,-3.7454 5.061,-6.7461 9.999,-6.7293 3.407,0.0121 6.362,1.6031 7.642,2.7921 0.786,0.7418 0.884,1.286 0.88,2.225 l -0.014,4.2961 c -0.053,1.3321 -0.208,2.5661 -2.233,2.9059 -0.394,0.048 -1.333,0.0922 -3.31,0.1352 l -0.002,1.6296 15.107,0.0512 0.007,-1.5789 c -1.435,-0.006 -2.224,-0.057 -2.765,-0.257 -1.578,-0.5481 -1.625,-1.8321 -1.67,-2.625 l 0.027,-8.0949" /><path
       inkscape:connector-curvature="0"
       id="path72"
       style="fill:#0e315f;fill-opacity:1;fill-rule:nonzero;stroke:none"
       d="m 535.471,126.691 29.972,0.106 0.867,-8.835 -1.431,-0.005 c -0.45,1.627 -1.048,3.699 -2.535,5.174 -1.733,1.674 -3.708,1.716 -5.684,1.71 l -3.603,-0.013 0.096,-27.6991 c 0.055,-1.6289 0.305,-2.9109 2.135,-3.3988 0.395,-0.0961 0.692,-0.0949 2.962,-0.236 l 0.007,-1.6281 -15.601,-0.057 -0.007,1.6308 c 3.999,0.2114 5.233,0.3641 5.22,3.918 l -0.096,27.4522 -3.802,-0.012 c -3.062,-0.11 -4.294,-0.313 -5.622,-1.948 -1.18,-1.485 -1.766,-3.066 -2.303,-4.994 l -1.532,-0.005 0.957,8.84" /><path
       inkscape:connector-curvature="0"
       id="path74"
       style="fill:#0e315f;fill-opacity:1;fill-rule:nonzero;stroke:none"
       d="m 570.211,118.125 c 2.11,4.156 7.225,9.553 16.653,9.586 1.581,0.006 3.213,-0.186 4.793,-0.525 7.015,-1.555 13.604,-7.555 13.638,-17.579 0.038,-10.4172 -7.143,-18.441 -18.597,-18.4808 -10.566,-0.0371 -18.394,7.1457 -18.43,17.9558 -0.011,3.112 0.571,6.271 1.943,9.043 m 9.213,5.611 c -4.087,-3.176 -5.155,-8.56 -5.135,-13.793 0.006,-2.1239 0.163,-4.2461 0.563,-6.368 0.303,-1.675 1.106,-5.427 4.027,-7.984 1.289,-1.1308 3.814,-2.7019 7.813,-2.689 4.097,0.016 7.35,1.705 9.218,3.9851 2.162,2.5738 3.382,7.1688 3.36,12.9949 -0.007,2.568 -0.222,7.208 -2.357,10.804 -2.186,3.597 -5.944,5.412 -10.19,5.397 -1.973,-0.008 -4.739,-0.364 -7.299,-2.347" /><path
       inkscape:connector-curvature="0"
       id="path76"
       style="fill:#0e315f;fill-opacity:1;fill-rule:nonzero;stroke:none"
       d="m 629.279,126.971 11.998,0.043 0.005,-1.729 c -1.134,-0.052 -2.27,-0.157 -3.208,-0.702 -1.427,-0.894 -1.668,-2.278 -1.758,-4.992 l 0.098,-27.748 -2.274,-0.0071 -18.406,25.4611 c -1.536,2.117 -1.935,2.709 -3.572,5.418 l 0.082,-23.2541 c 0.004,-1.3839 0.058,-2.9109 0.656,-3.9468 1.092,-1.8231 3.263,-1.8172 4.449,-1.8129 l 0.005,-1.6282 -12.442,-0.0449 -0.005,1.6778 c 0.937,0.0543 1.926,0.107 2.811,0.5062 2.27,0.9918 2.361,3.266 2.403,5.3399 l -0.081,22.811 c -0.208,2.614 -1.588,2.71 -4.899,2.894 l -0.005,1.631 9.975,0.033 15.28,-21.078 c 1.835,-2.511 2.331,-3.2489 3.919,-5.7129 l -0.069,19.8959 c -0.113,3.951 -1.057,4.934 -4.955,5.265 l -0.007,1.68" /><path
       inkscape:connector-curvature="0"
       id="path78"
       style="fill:#696566;fill-opacity:1;fill-rule:nonzero;stroke:none"
       d="M 98.6063,76.4691 H 98.623 L 96.9566,198.935 h -0.0148 c 0,0.008 0.0078,0.015 0.0078,0.022 -0.0058,1.457 -3.5066,2.626 -7.825,2.609 -4.2547,-0.016 -7.6969,-1.176 -7.7894,-2.609 h -0.0055 v -0.019 c 0,-0.014 -0.0121,-0.028 -0.0121,-0.041 0,-0.012 0.0101,-0.023 0.0101,-0.035 L 79.5445,76.493 h 0.0356 c -0.0047,-0.0489 -0.0406,-0.095 -0.0406,-0.1469 0.007,-1.7902 4.0468,-3.2621 9.4003,-3.241 5.3582,0.0168 9.6965,1.4898 9.6903,3.2879 0,0.0261 -0.0215,0.05 -0.0238,0.0761" /></g></svg>